<svg width="35" height="34" viewBox="0 0 35 34" fill="none" xmlns="http://www.w3.org/2000/svg">
<path d="M6.19792 2.74045e-06H28.8021C29.6162 -0.00076178 30.4225 0.158443 31.1748 0.468506C31.9271 0.778569 32.6107 1.2334 33.1864 1.80698C33.7621 2.38055 34.2186 3.0616 34.5298 3.81116C34.841 4.56072 35.0008 5.36406 35 6.17522V27.8248C35.0008 28.6359 34.841 29.4393 34.5298 30.1888C34.2186 30.9384 33.7621 31.6195 33.1864 32.193C32.6107 32.7666 31.9271 33.2214 31.1748 33.5315C30.4225 33.8416 29.6162 34.0008 28.8021 34H6.19792C5.38378 34.0008 4.57748 33.8416 3.82517 33.5315C3.07286 33.2214 2.3893 32.7666 1.81362 32.193C1.23794 31.6195 0.781431 30.9384 0.470228 30.1888C0.159026 29.4393 -0.000764581 28.6359 2.75053e-06 27.8248V6.17522C-0.000764581 5.36406 0.159026 4.56072 0.470228 3.81116C0.781431 3.0616 1.23794 2.38055 1.81362 1.80698C2.3893 1.2334 3.07286 0.778569 3.82517 0.468506C4.57748 0.158443 5.38378 -0.00076178 6.19792 2.74045e-06Z" fill="#330000"/>
<path d="M16.9609 20.3999H11.5359L10.4276 23.8145C10.4152 23.8767 10.3799 23.9321 10.3286 23.9697C10.2774 24.0074 10.2138 24.0245 10.1505 24.0179H7.40882C7.2484 24.0179 7.20465 23.9307 7.2484 23.7564L11.9442 10.2871C11.988 10.1418 12.0317 9.982 12.0901 9.80764C12.1488 9.49624 12.1781 9.18004 12.1776 8.8632C12.1732 8.82681 12.1828 8.79012 12.2044 8.76048C12.2261 8.73084 12.2581 8.71044 12.2942 8.70337H16.0713C16.188 8.70337 16.2463 8.74696 16.2609 8.81961L21.5838 23.7854C21.6276 23.9452 21.5838 24.0179 21.438 24.0179H18.3901C18.3385 24.0228 18.2869 24.0095 18.2442 23.9803C18.2015 23.9511 18.1706 23.9078 18.1567 23.8581L16.9609 20.3999ZM12.3817 17.4504H16.0859C15.9984 17.1452 15.8817 16.782 15.7505 16.4042C15.6192 16.0264 15.488 15.5905 15.3567 15.1547C15.2255 14.7188 15.0796 14.2683 14.9338 13.8179C14.788 13.3675 14.6567 12.9461 14.5401 12.5247C14.4234 12.1034 14.3213 11.7401 14.2192 11.3914H14.1901C14.059 12.0247 13.8935 12.6504 13.6942 13.2658C13.4755 13.9632 13.2567 14.6897 13.0234 15.4162C12.8192 16.1572 12.6005 16.8401 12.3817 17.4504Z" fill="#FF9A00"/>
<path d="M24.7626 11.1881C24.5232 11.1933 24.2852 11.151 24.0624 11.0637C23.8396 10.9764 23.6364 10.8458 23.4647 10.6795C23.1306 10.3155 22.9526 9.83578 22.9689 9.34278C22.9603 9.10258 23.0026 8.86326 23.093 8.64044C23.1835 8.41763 23.3201 8.21631 23.4939 8.04962C23.8444 7.71952 24.3095 7.53729 24.7918 7.54107C25.3605 7.54107 25.798 7.71543 26.1189 8.04962C26.4419 8.40193 26.6146 8.86578 26.6001 9.34278C26.609 9.58828 26.5684 9.83305 26.4808 10.0627C26.3931 10.2922 26.2601 10.502 26.0897 10.6795C25.9179 10.8539 25.7105 10.9896 25.4815 11.0773C25.2526 11.165 25.0075 11.2028 24.7626 11.1881ZM23.1293 23.8V12.612C23.1293 12.4667 23.1876 12.4086 23.3189 12.4086H26.2064C26.3376 12.4086 26.396 12.4812 26.396 12.612V23.8C26.396 23.9599 26.3376 24.0325 26.2064 24.0325H23.348C23.3174 24.035 23.2866 24.0306 23.2579 24.0196C23.2292 24.0086 23.2033 23.9913 23.1823 23.9689C23.1613 23.9466 23.1456 23.9198 23.1364 23.8905C23.1272 23.8613 23.1248 23.8304 23.1293 23.8Z" fill="#FF9A00"/>
</svg>
