<svg width="83" height="83" viewBox="0 0 83 83" fill="none" xmlns="http://www.w3.org/2000/svg">
<path d="M2.51515 0H0V2.51515H2.51515V0Z" fill="black"/>
<path d="M5.0303 0H2.51515V2.51515H5.0303V0Z" fill="black"/>
<path d="M7.54545 0H5.0303V2.51515H7.54545V0Z" fill="black"/>
<path d="M10.0606 0H7.54545V2.51515H10.0606V0Z" fill="black"/>
<path d="M12.5758 0H10.0606V2.51515H12.5758V0Z" fill="black"/>
<path d="M15.0909 0H12.5758V2.51515H15.0909V0Z" fill="black"/>
<path d="M17.6061 0H15.0909V2.51515H17.6061V0Z" fill="black"/>
<path d="M30.1818 0H27.6667V2.51515H30.1818V0Z" fill="black"/>
<path d="M32.697 0H30.1818V2.51515H32.697V0Z" fill="black"/>
<path d="M35.2121 0H32.697V2.51515H35.2121V0Z" fill="black"/>
<path d="M37.7273 0H35.2121V2.51515H37.7273V0Z" fill="black"/>
<path d="M40.2424 0H37.7273V2.51515H40.2424V0Z" fill="black"/>
<path d="M42.7576 0H40.2424V2.51515H42.7576V0Z" fill="black"/>
<path d="M47.7879 0H45.2727V2.51515H47.7879V0Z" fill="black"/>
<path d="M50.303 0H47.7879V2.51515H50.303V0Z" fill="black"/>
<path d="M57.8485 0H55.3333V2.51515H57.8485V0Z" fill="black"/>
<path d="M62.8788 0H60.3636V2.51515H62.8788V0Z" fill="black"/>
<path d="M67.9091 0H65.3939V2.51515H67.9091V0Z" fill="black"/>
<path d="M70.4242 0H67.9091V2.51515H70.4242V0Z" fill="black"/>
<path d="M72.9394 0H70.4242V2.51515H72.9394V0Z" fill="black"/>
<path d="M75.4546 0H72.9394V2.51515H75.4546V0Z" fill="black"/>
<path d="M77.9697 0H75.4546V2.51515H77.9697V0Z" fill="black"/>
<path d="M80.4849 0H77.9697V2.51515H80.4849V0Z" fill="black"/>
<path d="M83 0H80.4849V2.51515H83V0Z" fill="black"/>
<path d="M2.51515 2.51515H0V5.0303H2.51515V2.51515Z" fill="black"/>
<path d="M17.6061 2.51515H15.0909V5.0303H17.6061V2.51515Z" fill="black"/>
<path d="M22.6364 2.51515H20.1212V5.0303H22.6364V2.51515Z" fill="black"/>
<path d="M27.6667 2.51515H25.1515V5.0303H27.6667V2.51515Z" fill="black"/>
<path d="M32.697 2.51515H30.1818V5.0303H32.697V2.51515Z" fill="black"/>
<path d="M42.7576 2.51515H40.2424V5.0303H42.7576V2.51515Z" fill="black"/>
<path d="M45.2727 2.51515H42.7576V5.0303H45.2727V2.51515Z" fill="black"/>
<path d="M50.303 2.51515H47.7879L47.7879 5.0303H50.303V2.51515Z" fill="black"/>
<path d="M57.8485 2.51515H55.3333V5.0303H57.8485V2.51515Z" fill="black"/>
<path d="M60.3636 2.51515H57.8485V5.0303H60.3636V2.51515Z" fill="black"/>
<path d="M67.9091 2.51515H65.3939V5.0303H67.9091V2.51515Z" fill="black"/>
<path d="M83 2.51515H80.4849V5.0303H83V2.51515Z" fill="black"/>
<path d="M2.51515 5.0303H0V7.54545H2.51515V5.0303Z" fill="black"/>
<path d="M7.54545 5.0303H5.0303V7.54545H7.54545V5.0303Z" fill="black"/>
<path d="M10.0606 5.0303H7.54545V7.54545H10.0606V5.0303Z" fill="black"/>
<path d="M12.5758 5.0303H10.0606V7.54545H12.5758V5.0303Z" fill="black"/>
<path d="M17.6061 5.0303H15.0909V7.54545H17.6061V5.0303Z" fill="black"/>
<path d="M27.6667 5.0303H25.1515V7.54545H27.6667V5.0303Z" fill="black"/>
<path d="M32.697 5.0303H30.1818V7.54545H32.697V5.0303Z" fill="black"/>
<path d="M35.2121 5.0303H32.697V7.54545H35.2121V5.0303Z" fill="black"/>
<path d="M40.2424 5.0303H37.7273V7.54545H40.2424V5.0303Z" fill="black"/>
<path d="M42.7576 5.0303H40.2424V7.54545H42.7576V5.0303Z" fill="black"/>
<path d="M47.7879 5.0303H45.2727V7.54545H47.7879L47.7879 5.0303Z" fill="black"/>
<path d="M50.303 5.0303H47.7879L47.7879 7.54545H50.303V5.0303Z" fill="black"/>
<path d="M52.8182 5.0303H50.303V7.54545H52.8182V5.0303Z" fill="black"/>
<path d="M62.8788 5.0303H60.3636V7.54545H62.8788V5.0303Z" fill="black"/>
<path d="M67.9091 5.0303H65.3939V7.54545H67.9091V5.0303Z" fill="black"/>
<path d="M72.9394 5.0303H70.4242V7.54545H72.9394V5.0303Z" fill="black"/>
<path d="M75.4546 5.0303H72.9394V7.54545H75.4546V5.0303Z" fill="black"/>
<path d="M77.9697 5.0303H75.4546V7.54545H77.9697V5.0303Z" fill="black"/>
<path d="M83 5.0303H80.4849V7.54545H83V5.0303Z" fill="black"/>
<path d="M2.51515 7.54545H0V10.0606H2.51515V7.54545Z" fill="black"/>
<path d="M7.54545 7.54545H5.0303V10.0606H7.54545V7.54545Z" fill="black"/>
<path d="M10.0606 7.54545H7.54545V10.0606H10.0606V7.54545Z" fill="black"/>
<path d="M12.5758 7.54545H10.0606V10.0606H12.5758V7.54545Z" fill="black"/>
<path d="M17.6061 7.54545H15.0909V10.0606H17.6061V7.54545Z" fill="black"/>
<path d="M22.6364 7.54545H20.1212V10.0606H22.6364V7.54545Z" fill="black"/>
<path d="M27.6667 7.54545H25.1515V10.0606H27.6667V7.54545Z" fill="black"/>
<path d="M37.7273 7.54545H35.2121V10.0606H37.7273V7.54545Z" fill="black"/>
<path d="M45.2727 7.54545H42.7576V10.0606H45.2727V7.54545Z" fill="black"/>
<path d="M47.7879 7.54545H45.2727V10.0606H47.7879V7.54545Z" fill="black"/>
<path d="M50.303 7.54545H47.7879V10.0606H50.303V7.54545Z" fill="black"/>
<path d="M55.3333 7.54545H52.8182V10.0606H55.3333V7.54545Z" fill="black"/>
<path d="M60.3636 7.54545H57.8485V10.0606H60.3636V7.54545Z" fill="black"/>
<path d="M62.8788 7.54545H60.3636V10.0606H62.8788V7.54545Z" fill="black"/>
<path d="M67.9091 7.54545H65.3939V10.0606H67.9091V7.54545Z" fill="black"/>
<path d="M72.9394 7.54545H70.4242V10.0606H72.9394V7.54545Z" fill="black"/>
<path d="M75.4546 7.54545H72.9394V10.0606H75.4546V7.54545Z" fill="black"/>
<path d="M77.9697 7.54545H75.4546V10.0606H77.9697V7.54545Z" fill="black"/>
<path d="M83 7.54545H80.4849V10.0606H83V7.54545Z" fill="black"/>
<path d="M2.51515 10.0606H0V12.5758H2.51515V10.0606Z" fill="black"/>
<path d="M7.54545 10.0606H5.0303V12.5758H7.54545V10.0606Z" fill="black"/>
<path d="M10.0606 10.0606H7.54545V12.5758H10.0606V10.0606Z" fill="black"/>
<path d="M12.5758 10.0606H10.0606V12.5758H12.5758V10.0606Z" fill="black"/>
<path d="M17.6061 10.0606H15.0909V12.5758H17.6061V10.0606Z" fill="black"/>
<path d="M25.1515 10.0606H22.6364V12.5758H25.1515V10.0606Z" fill="black"/>
<path d="M27.6667 10.0606H25.1515V12.5758H27.6667V10.0606Z" fill="black"/>
<path d="M30.1818 10.0606H27.6667V12.5758H30.1818V10.0606Z" fill="black"/>
<path d="M32.697 10.0606H30.1818V12.5758H32.697V10.0606Z" fill="black"/>
<path d="M35.2121 10.0606H32.697V12.5758H35.2121V10.0606Z" fill="black"/>
<path d="M42.7576 10.0606H40.2424V12.5758H42.7576V10.0606Z" fill="black"/>
<path d="M45.2727 10.0606H42.7576V12.5758H45.2727V10.0606Z" fill="black"/>
<path d="M60.3636 10.0606H57.8485V12.5758H60.3636V10.0606Z" fill="black"/>
<path d="M67.9091 10.0606H65.3939V12.5758H67.9091V10.0606Z" fill="black"/>
<path d="M72.9394 10.0606H70.4242V12.5758H72.9394V10.0606Z" fill="black"/>
<path d="M75.4546 10.0606H72.9394V12.5758H75.4546V10.0606Z" fill="black"/>
<path d="M77.9697 10.0606H75.4546V12.5758H77.9697V10.0606Z" fill="black"/>
<path d="M83 10.0606H80.4849V12.5758H83V10.0606Z" fill="black"/>
<path d="M2.51515 12.5758H0V15.0909H2.51515V12.5758Z" fill="black"/>
<path d="M17.6061 12.5758H15.0909V15.0909H17.6061V12.5758Z" fill="black"/>
<path d="M22.6364 12.5758H20.1212V15.0909H22.6364V12.5758Z" fill="black"/>
<path d="M32.697 12.5758H30.1818V15.0909H32.697V12.5758Z" fill="black"/>
<path d="M40.2424 12.5758H37.7273V15.0909H40.2424V12.5758Z" fill="black"/>
<path d="M47.7879 12.5758H45.2727V15.0909H47.7879V12.5758Z" fill="black"/>
<path d="M57.8485 12.5758H55.3333V15.0909H57.8485V12.5758Z" fill="black"/>
<path d="M62.8788 12.5758H60.3636V15.0909H62.8788V12.5758Z" fill="black"/>
<path d="M67.9091 12.5758H65.3939V15.0909H67.9091V12.5758Z" fill="black"/>
<path d="M83 12.5758H80.4849V15.0909H83V12.5758Z" fill="black"/>
<path d="M2.51515 15.0909H0V17.6061H2.51515V15.0909Z" fill="black"/>
<path d="M5.0303 15.0909H2.51515V17.6061H5.0303V15.0909Z" fill="black"/>
<path d="M7.54545 15.0909H5.0303V17.6061H7.54545V15.0909Z" fill="black"/>
<path d="M10.0606 15.0909H7.54545V17.6061H10.0606V15.0909Z" fill="black"/>
<path d="M12.5758 15.0909H10.0606V17.6061H12.5758V15.0909Z" fill="black"/>
<path d="M15.0909 15.0909H12.5758V17.6061H15.0909V15.0909Z" fill="black"/>
<path d="M17.6061 15.0909H15.0909V17.6061H17.6061V15.0909Z" fill="black"/>
<path d="M22.6364 15.0909H20.1212V17.6061H22.6364V15.0909Z" fill="black"/>
<path d="M27.6667 15.0909H25.1515V17.6061H27.6667V15.0909Z" fill="black"/>
<path d="M32.697 15.0909H30.1818V17.6061H32.697V15.0909Z" fill="black"/>
<path d="M37.7273 15.0909H35.2121V17.6061H37.7273V15.0909Z" fill="black"/>
<path d="M42.7576 15.0909H40.2424V17.6061H42.7576V15.0909Z" fill="black"/>
<path d="M47.7879 15.0909H45.2727V17.6061H47.7879V15.0909Z" fill="black"/>
<path d="M52.8182 15.0909H50.303V17.6061H52.8182V15.0909Z" fill="black"/>
<path d="M57.8485 15.0909H55.3333V17.6061H57.8485V15.0909Z" fill="black"/>
<path d="M62.8788 15.0909H60.3636V17.6061H62.8788V15.0909Z" fill="black"/>
<path d="M67.9091 15.0909H65.3939V17.6061H67.9091V15.0909Z" fill="black"/>
<path d="M70.4242 15.0909H67.9091V17.6061H70.4242V15.0909Z" fill="black"/>
<path d="M72.9394 15.0909H70.4242V17.6061H72.9394V15.0909Z" fill="black"/>
<path d="M75.4546 15.0909H72.9394V17.6061H75.4546V15.0909Z" fill="black"/>
<path d="M77.9697 15.0909H75.4546V17.6061H77.9697V15.0909Z" fill="black"/>
<path d="M80.4849 15.0909H77.9697V17.6061H80.4849V15.0909Z" fill="black"/>
<path d="M83 15.0909H80.4849V17.6061H83V15.0909Z" fill="black"/>
<path d="M22.6364 17.6061H20.1212V20.1212H22.6364V17.6061Z" fill="black"/>
<path d="M25.1515 17.6061H22.6364V20.1212H25.1515V17.6061Z" fill="black"/>
<path d="M30.1818 17.6061H27.6667V20.1212H30.1818V17.6061Z" fill="black"/>
<path d="M40.2424 17.6061H37.7273V20.1212H40.2424V17.6061Z" fill="black"/>
<path d="M42.7576 17.6061H40.2424V20.1212H42.7576V17.6061Z" fill="black"/>
<path d="M45.2727 17.6061H42.7576V20.1212H45.2727V17.6061Z" fill="black"/>
<path d="M47.7879 17.6061H45.2727V20.1212H47.7879V17.6061Z" fill="black"/>
<path d="M50.303 17.6061H47.7879V20.1212H50.303V17.6061Z" fill="black"/>
<path d="M52.8182 17.6061H50.303V20.1212H52.8182V17.6061Z" fill="black"/>
<path d="M55.3333 17.6061H52.8182V20.1212H55.3333V17.6061Z" fill="black"/>
<path d="M57.8485 17.6061H55.3333V20.1212H57.8485V17.6061Z" fill="black"/>
<path d="M60.3636 17.6061H57.8485V20.1212H60.3636V17.6061Z" fill="black"/>
<path d="M62.8788 17.6061H60.3636V20.1212H62.8788V17.6061Z" fill="black"/>
<path d="M2.51515 20.1212H0V22.6364H2.51515V20.1212Z" fill="black"/>
<path d="M7.54545 20.1212H5.0303V22.6364H7.54545V20.1212Z" fill="black"/>
<path d="M10.0606 20.1212H7.54545V22.6364H10.0606V20.1212Z" fill="black"/>
<path d="M15.0909 20.1212H12.5758V22.6364H15.0909V20.1212Z" fill="black"/>
<path d="M17.6061 20.1212H15.0909V22.6364H17.6061V20.1212Z" fill="black"/>
<path d="M20.1212 20.1212H17.6061V22.6364H20.1212V20.1212Z" fill="black"/>
<path d="M22.6364 20.1212H20.1212V22.6364H22.6364V20.1212Z" fill="black"/>
<path d="M25.1515 20.1212H22.6364V22.6364H25.1515V20.1212Z" fill="black"/>
<path d="M35.2121 20.1212H32.697V22.6364H35.2121V20.1212Z" fill="black"/>
<path d="M45.2727 20.1212H42.7576V22.6364H45.2727V20.1212Z" fill="black"/>
<path d="M47.7879 20.1212H45.2727V22.6364H47.7879V20.1212Z" fill="black"/>
<path d="M55.3333 20.1212H52.8182V22.6364H55.3333V20.1212Z" fill="black"/>
<path d="M65.3939 20.1212H62.8788V22.6364H65.3939V20.1212Z" fill="black"/>
<path d="M67.9091 20.1212H65.3939V22.6364H67.9091V20.1212Z" fill="black"/>
<path d="M70.4242 20.1212H67.9091V22.6364H70.4242V20.1212Z" fill="black"/>
<path d="M75.4546 20.1212H72.9394V22.6364H75.4546V20.1212Z" fill="black"/>
<path d="M80.4849 20.1212H77.9697V22.6364H80.4849V20.1212Z" fill="black"/>
<path d="M2.51515 22.6364H0V25.1515H2.51515V22.6364Z" fill="black"/>
<path d="M10.0606 22.6364H7.54545V25.1515H10.0606V22.6364Z" fill="black"/>
<path d="M20.1212 22.6364H17.6061V25.1515H20.1212V22.6364Z" fill="black"/>
<path d="M22.6364 22.6364H20.1212V25.1515H22.6364V22.6364Z" fill="black"/>
<path d="M25.1515 22.6364H22.6364V25.1515H25.1515V22.6364Z" fill="black"/>
<path d="M27.6667 22.6364H25.1515V25.1515H27.6667V22.6364Z" fill="black"/>
<path d="M37.7273 22.6364H35.2121V25.1515H37.7273V22.6364Z" fill="black"/>
<path d="M40.2424 22.6364H37.7273V25.1515H40.2424V22.6364Z" fill="black"/>
<path d="M42.7576 22.6364H40.2424V25.1515H42.7576V22.6364Z" fill="black"/>
<path d="M45.2727 22.6364H42.7576V25.1515H45.2727V22.6364Z" fill="black"/>
<path d="M55.3333 22.6364H52.8182V25.1515H55.3333V22.6364Z" fill="black"/>
<path d="M57.8485 22.6364H55.3333V25.1515H57.8485V22.6364Z" fill="black"/>
<path d="M60.3636 22.6364H57.8485V25.1515H60.3636V22.6364Z" fill="black"/>
<path d="M62.8788 22.6364H60.3636V25.1515H62.8788V22.6364Z" fill="black"/>
<path d="M65.3939 22.6364H62.8788V25.1515H65.3939V22.6364Z" fill="black"/>
<path d="M67.9091 22.6364H65.3939V25.1515H67.9091V22.6364Z" fill="black"/>
<path d="M72.9394 22.6364H70.4242V25.1515H72.9394V22.6364Z" fill="black"/>
<path d="M77.9697 22.6364H75.4546V25.1515H77.9697V22.6364Z" fill="black"/>
<path d="M80.4849 22.6364H77.9697V25.1515H80.4849V22.6364Z" fill="black"/>
<path d="M2.51515 25.1515H0V27.6667H2.51515V25.1515Z" fill="black"/>
<path d="M7.54545 25.1515H5.0303V27.6667H7.54545V25.1515Z" fill="black"/>
<path d="M15.0909 25.1515H12.5758V27.6667H15.0909V25.1515Z" fill="black"/>
<path d="M17.6061 25.1515H15.0909V27.6667H17.6061V25.1515Z" fill="black"/>
<path d="M22.6364 25.1515H20.1212V27.6667H22.6364V25.1515Z" fill="black"/>
<path d="M25.1515 25.1515H22.6364V27.6667H25.1515V25.1515Z" fill="black"/>
<path d="M30.1818 25.1515H27.6667V27.6667H30.1818V25.1515Z" fill="black"/>
<path d="M35.2121 25.1515H32.697V27.6667H35.2121V25.1515Z" fill="black"/>
<path d="M37.7273 25.1515H35.2121V27.6667H37.7273V25.1515Z" fill="black"/>
<path d="M45.2727 25.1515H42.7576V27.6667H45.2727V25.1515Z" fill="black"/>
<path d="M50.303 25.1515H47.7879V27.6667H50.303V25.1515Z" fill="black"/>
<path d="M52.8182 25.1515H50.303V27.6667H52.8182V25.1515Z" fill="black"/>
<path d="M60.3636 25.1515H57.8485V27.6667H60.3636V25.1515Z" fill="black"/>
<path d="M65.3939 25.1515H62.8788V27.6667H65.3939V25.1515Z" fill="black"/>
<path d="M67.9091 25.1515H65.3939V27.6667H67.9091V25.1515Z" fill="black"/>
<path d="M70.4242 25.1515H67.9091V27.6667H70.4242V25.1515Z" fill="black"/>
<path d="M75.4546 25.1515H72.9394V27.6667H75.4546V25.1515Z" fill="black"/>
<path d="M80.4849 25.1515H77.9697V27.6667H80.4849V25.1515Z" fill="black"/>
<path d="M2.51515 27.6667H0V30.1818H2.51515V27.6667Z" fill="black"/>
<path d="M5.0303 27.6667H2.51515V30.1818H5.0303V27.6667Z" fill="black"/>
<path d="M12.5758 27.6667H10.0606V30.1818H12.5758V27.6667Z" fill="black"/>
<path d="M20.1212 27.6667H17.6061V30.1818H20.1212V27.6667Z" fill="black"/>
<path d="M22.6364 27.6667H20.1212V30.1818H22.6364V27.6667Z" fill="black"/>
<path d="M27.6667 27.6667H25.1515V30.1818H27.6667V27.6667Z" fill="black"/>
<path d="M30.1818 27.6667H27.6667V30.1818H30.1818V27.6667Z" fill="black"/>
<path d="M45.2727 27.6667H42.7576V30.1818H45.2727V27.6667Z" fill="black"/>
<path d="M47.7879 27.6667H45.2727V30.1818H47.7879L47.7879 27.6667Z" fill="black"/>
<path d="M50.303 27.6667H47.7879L47.7879 30.1818H50.303V27.6667Z" fill="black"/>
<path d="M55.3333 27.6667H52.8182V30.1818H55.3333V27.6667Z" fill="black"/>
<path d="M67.9091 27.6667H65.3939V30.1818H67.9091V27.6667Z" fill="black"/>
<path d="M72.9394 27.6667H70.4242V30.1818H72.9394V27.6667Z" fill="black"/>
<path d="M75.4546 27.6667H72.9394V30.1818H75.4546V27.6667Z" fill="black"/>
<path d="M5.0303 30.1818H2.51515V32.697H5.0303V30.1818Z" fill="black"/>
<path d="M7.54545 30.1818H5.0303V32.697H7.54545V30.1818Z" fill="black"/>
<path d="M12.5758 30.1818H10.0606V32.697H12.5758V30.1818Z" fill="black"/>
<path d="M17.6061 30.1818H15.0909V32.697H17.6061V30.1818Z" fill="black"/>
<path d="M22.6364 30.1818H20.1212V32.697H22.6364V30.1818Z" fill="black"/>
<path d="M25.1515 30.1818H22.6364V32.697H25.1515V30.1818Z" fill="black"/>
<path d="M30.1818 30.1818H27.6667V32.697H30.1818V30.1818Z" fill="black"/>
<path d="M35.2121 30.1818H32.697V32.697H35.2121V30.1818Z" fill="black"/>
<path d="M40.2424 30.1818H37.7273V32.697H40.2424V30.1818Z" fill="black"/>
<path d="M42.7576 30.1818H40.2424V32.697H42.7576V30.1818Z" fill="black"/>
<path d="M47.7879 30.1818H45.2727V32.697H47.7879V30.1818Z" fill="black"/>
<path d="M50.303 30.1818H47.7879V32.697H50.303V30.1818Z" fill="black"/>
<path d="M62.8788 30.1818H60.3636V32.697H62.8788V30.1818Z" fill="black"/>
<path d="M65.3939 30.1818H62.8788V32.697H65.3939V30.1818Z" fill="black"/>
<path d="M67.9091 30.1818H65.3939V32.697H67.9091V30.1818Z" fill="black"/>
<path d="M70.4242 30.1818H67.9091V32.697H70.4242V30.1818Z" fill="black"/>
<path d="M83 30.1818H80.4849V32.697H83V30.1818Z" fill="black"/>
<path d="M5.0303 32.697H2.51515V35.2121H5.0303V32.697Z" fill="black"/>
<path d="M7.54545 32.697H5.0303V35.2121H7.54545V32.697Z" fill="black"/>
<path d="M10.0606 32.697H7.54545V35.2121H10.0606V32.697Z" fill="black"/>
<path d="M12.5758 32.697H10.0606V35.2121H12.5758V32.697Z" fill="black"/>
<path d="M22.6364 32.697H20.1212V35.2121H22.6364V32.697Z" fill="black"/>
<path d="M25.1515 32.697H22.6364V35.2121H25.1515V32.697Z" fill="black"/>
<path d="M35.2121 32.697H32.697V35.2121H35.2121V32.697Z" fill="black"/>
<path d="M45.2727 32.697H42.7576V35.2121H45.2727V32.697Z" fill="black"/>
<path d="M60.3636 32.697H57.8485V35.2121H60.3636V32.697Z" fill="black"/>
<path d="M62.8788 32.697H60.3636V35.2121H62.8788V32.697Z" fill="black"/>
<path d="M67.9091 32.697H65.3939V35.2121H67.9091V32.697Z" fill="black"/>
<path d="M70.4242 32.697H67.9091V35.2121H70.4242V32.697Z" fill="black"/>
<path d="M77.9697 32.697H75.4546V35.2121H77.9697V32.697Z" fill="black"/>
<path d="M80.4849 32.697H77.9697V35.2121H80.4849V32.697Z" fill="black"/>
<path d="M83 32.697H80.4849V35.2121H83V32.697Z" fill="black"/>
<path d="M2.51515 35.2121H0V37.7273H2.51515V35.2121Z" fill="black"/>
<path d="M17.6061 35.2121H15.0909V37.7273H17.6061V35.2121Z" fill="black"/>
<path d="M20.1212 35.2121H17.6061V37.7273H20.1212V35.2121Z" fill="black"/>
<path d="M22.6364 35.2121H20.1212V37.7273H22.6364V35.2121Z" fill="black"/>
<path d="M27.6667 35.2121H25.1515V37.7273H27.6667V35.2121Z" fill="black"/>
<path d="M32.697 35.2121H30.1818V37.7273H32.697V35.2121Z" fill="black"/>
<path d="M35.2121 35.2121H32.697V37.7273H35.2121V35.2121Z" fill="black"/>
<path d="M37.7273 35.2121H35.2121V37.7273H37.7273V35.2121Z" fill="black"/>
<path d="M40.2424 35.2121H37.7273V37.7273H40.2424V35.2121Z" fill="black"/>
<path d="M45.2727 35.2121H42.7576V37.7273H45.2727V35.2121Z" fill="black"/>
<path d="M52.8182 35.2121H50.303V37.7273H52.8182V35.2121Z" fill="black"/>
<path d="M65.3939 35.2121H62.8788V37.7273H65.3939V35.2121Z" fill="black"/>
<path d="M67.9091 35.2121H65.3939V37.7273H67.9091V35.2121Z" fill="black"/>
<path d="M72.9394 35.2121H70.4242V37.7273H72.9394V35.2121Z" fill="black"/>
<path d="M80.4849 35.2121H77.9697V37.7273H80.4849V35.2121Z" fill="black"/>
<path d="M83 35.2121H80.4849V37.7273H83V35.2121Z" fill="black"/>
<path d="M5.0303 37.7273H2.51515V40.2424H5.0303V37.7273Z" fill="black"/>
<path d="M7.54545 37.7273H5.0303V40.2424H7.54545V37.7273Z" fill="black"/>
<path d="M10.0606 37.7273H7.54545V40.2424H10.0606V37.7273Z" fill="black"/>
<path d="M20.1212 37.7273H17.6061V40.2424H20.1212V37.7273Z" fill="black"/>
<path d="M30.1818 37.7273H27.6667V40.2424H30.1818V37.7273Z" fill="black"/>
<path d="M35.2121 37.7273H32.697V40.2424H35.2121V37.7273Z" fill="black"/>
<path d="M37.7273 37.7273H35.2121V40.2424H37.7273V37.7273Z" fill="black"/>
<path d="M40.2424 37.7273H37.7273V40.2424H40.2424V37.7273Z" fill="black"/>
<path d="M50.303 37.7273H47.7879V40.2424H50.303V37.7273Z" fill="black"/>
<path d="M57.8485 37.7273H55.3333V40.2424H57.8485V37.7273Z" fill="black"/>
<path d="M62.8788 37.7273H60.3636V40.2424H62.8788V37.7273Z" fill="black"/>
<path d="M75.4546 37.7273H72.9394V40.2424H75.4546V37.7273Z" fill="black"/>
<path d="M80.4849 37.7273H77.9697V40.2424H80.4849V37.7273Z" fill="black"/>
<path d="M2.51515 40.2424H0V42.7576H2.51515V40.2424Z" fill="black"/>
<path d="M10.0606 40.2424H7.54545V42.7576H10.0606V40.2424Z" fill="black"/>
<path d="M15.0909 40.2424H12.5758V42.7576H15.0909V40.2424Z" fill="black"/>
<path d="M17.6061 40.2424H15.0909V42.7576H17.6061V40.2424Z" fill="black"/>
<path d="M20.1212 40.2424H17.6061V42.7576H20.1212V40.2424Z" fill="black"/>
<path d="M22.6364 40.2424H20.1212V42.7576H22.6364V40.2424Z" fill="black"/>
<path d="M27.6667 40.2424H25.1515V42.7576H27.6667V40.2424Z" fill="black"/>
<path d="M30.1818 40.2424H27.6667V42.7576H30.1818V40.2424Z" fill="black"/>
<path d="M40.2424 40.2424H37.7273V42.7576H40.2424V40.2424Z" fill="black"/>
<path d="M42.7576 40.2424H40.2424V42.7576H42.7576V40.2424Z" fill="black"/>
<path d="M45.2727 40.2424H42.7576V42.7576H45.2727V40.2424Z" fill="black"/>
<path d="M47.7879 40.2424H45.2727V42.7576H47.7879L47.7879 40.2424Z" fill="black"/>
<path d="M50.303 40.2424H47.7879L47.7879 42.7576H50.303V40.2424Z" fill="black"/>
<path d="M55.3333 40.2424H52.8182V42.7576H55.3333V40.2424Z" fill="black"/>
<path d="M57.8485 40.2424H55.3333V42.7576H57.8485V40.2424Z" fill="black"/>
<path d="M60.3636 40.2424H57.8485V42.7576H60.3636V40.2424Z" fill="black"/>
<path d="M62.8788 40.2424H60.3636V42.7576H62.8788V40.2424Z" fill="black"/>
<path d="M70.4242 40.2424H67.9091V42.7576H70.4242V40.2424Z" fill="black"/>
<path d="M72.9394 40.2424H70.4242V42.7576H72.9394V40.2424Z" fill="black"/>
<path d="M80.4849 40.2424H77.9697V42.7576H80.4849V40.2424Z" fill="black"/>
<path d="M5.0303 42.7576H2.51515V45.2727H5.0303V42.7576Z" fill="black"/>
<path d="M7.54545 42.7576H5.0303V45.2727H7.54545V42.7576Z" fill="black"/>
<path d="M10.0606 42.7576H7.54545V45.2727H10.0606V42.7576Z" fill="black"/>
<path d="M20.1212 42.7576H17.6061V45.2727H20.1212V42.7576Z" fill="black"/>
<path d="M27.6667 42.7576H25.1515V45.2727H27.6667V42.7576Z" fill="black"/>
<path d="M30.1818 42.7576H27.6667V45.2727H30.1818V42.7576Z" fill="black"/>
<path d="M35.2121 42.7576H32.697V45.2727H35.2121V42.7576Z" fill="black"/>
<path d="M37.7273 42.7576H35.2121V45.2727H37.7273V42.7576Z" fill="black"/>
<path d="M45.2727 42.7576H42.7576V45.2727H45.2727V42.7576Z" fill="black"/>
<path d="M47.7879 42.7576H45.2727V45.2727H47.7879V42.7576Z" fill="black"/>
<path d="M62.8788 42.7576H60.3636V45.2727H62.8788V42.7576Z" fill="black"/>
<path d="M65.3939 42.7576H62.8788V45.2727H65.3939V42.7576Z" fill="black"/>
<path d="M67.9091 42.7576H65.3939V45.2727H67.9091V42.7576Z" fill="black"/>
<path d="M70.4242 42.7576H67.9091V45.2727H70.4242V42.7576Z" fill="black"/>
<path d="M83 42.7576H80.4849V45.2727H83V42.7576Z" fill="black"/>
<path d="M15.0909 45.2727H12.5758V47.7879H15.0909V45.2727Z" fill="black"/>
<path d="M17.6061 45.2727H15.0909V47.7879H17.6061V45.2727Z" fill="black"/>
<path d="M20.1212 45.2727H17.6061V47.7879H20.1212V45.2727Z" fill="black"/>
<path d="M42.7576 45.2727H40.2424V47.7879H42.7576V45.2727Z" fill="black"/>
<path d="M52.8182 45.2727H50.303V47.7879H52.8182V45.2727Z" fill="black"/>
<path d="M62.8788 45.2727H60.3636V47.7879H62.8788V45.2727Z" fill="black"/>
<path d="M75.4546 45.2727H72.9394V47.7879H75.4546V45.2727Z" fill="black"/>
<path d="M77.9697 45.2727H75.4546V47.7879H77.9697V45.2727Z" fill="black"/>
<path d="M80.4849 45.2727H77.9697V47.7879H80.4849V45.2727Z" fill="black"/>
<path d="M2.51515 47.7879H0V50.303H2.51515V47.7879Z" fill="black"/>
<path d="M12.5758 47.7879L10.0606 47.7879V50.303H12.5758V47.7879Z" fill="black"/>
<path d="M20.1212 47.7879H17.6061V50.303H20.1212V47.7879Z" fill="black"/>
<path d="M22.6364 47.7879L20.1212 47.7879V50.303H22.6364V47.7879Z" fill="black"/>
<path d="M27.6667 47.7879H25.1515V50.303H27.6667V47.7879Z" fill="black"/>
<path d="M30.1818 47.7879H27.6667V50.303H30.1818V47.7879Z" fill="black"/>
<path d="M40.2424 47.7879L37.7273 47.7879V50.303H40.2424V47.7879Z" fill="black"/>
<path d="M42.7576 47.7879H40.2424V50.303H42.7576V47.7879Z" fill="black"/>
<path d="M52.8182 47.7879H50.303V50.303H52.8182V47.7879Z" fill="black"/>
<path d="M55.3333 47.7879L52.8182 47.7879V50.303H55.3333V47.7879Z" fill="black"/>
<path d="M62.8788 47.7879H60.3636V50.303H62.8788V47.7879Z" fill="black"/>
<path d="M65.3939 47.7879L62.8788 47.7879V50.303H65.3939V47.7879Z" fill="black"/>
<path d="M72.9394 47.7879L70.4242 47.7879V50.303H72.9394V47.7879Z" fill="black"/>
<path d="M75.4546 47.7879H72.9394V50.303H75.4546V47.7879Z" fill="black"/>
<path d="M15.0909 50.303H12.5758V52.8182H15.0909V50.303Z" fill="black"/>
<path d="M17.6061 50.303H15.0909V52.8182H17.6061V50.303Z" fill="black"/>
<path d="M20.1212 50.303H17.6061V52.8182H20.1212V50.303Z" fill="black"/>
<path d="M25.1515 50.303H22.6364V52.8182H25.1515V50.303Z" fill="black"/>
<path d="M27.6667 50.303H25.1515V52.8182H27.6667V50.303Z" fill="black"/>
<path d="M37.7273 50.303H35.2121V52.8182H37.7273V50.303Z" fill="black"/>
<path d="M55.3333 50.303H52.8182V52.8182H55.3333V50.303Z" fill="black"/>
<path d="M57.8485 50.303H55.3333V52.8182H57.8485V50.303Z" fill="black"/>
<path d="M62.8788 50.303H60.3636V52.8182H62.8788V50.303Z" fill="black"/>
<path d="M65.3939 50.303H62.8788V52.8182H65.3939V50.303Z" fill="black"/>
<path d="M67.9091 50.303H65.3939V52.8182H67.9091V50.303Z" fill="black"/>
<path d="M70.4242 50.303H67.9091V52.8182H70.4242V50.303Z" fill="black"/>
<path d="M75.4546 50.303H72.9394V52.8182H75.4546V50.303Z" fill="black"/>
<path d="M5.0303 52.8182H2.51515V55.3333H5.0303V52.8182Z" fill="black"/>
<path d="M10.0606 52.8182H7.54545V55.3333H10.0606V52.8182Z" fill="black"/>
<path d="M15.0909 52.8182H12.5758V55.3333H15.0909V52.8182Z" fill="black"/>
<path d="M20.1212 52.8182H17.6061V55.3333H20.1212V52.8182Z" fill="black"/>
<path d="M22.6364 52.8182H20.1212V55.3333H22.6364V52.8182Z" fill="black"/>
<path d="M27.6667 52.8182H25.1515V55.3333H27.6667V52.8182Z" fill="black"/>
<path d="M40.2424 52.8182H37.7273V55.3333H40.2424V52.8182Z" fill="black"/>
<path d="M42.7576 52.8182H40.2424V55.3333H42.7576V52.8182Z" fill="black"/>
<path d="M45.2727 52.8182H42.7576V55.3333H45.2727V52.8182Z" fill="black"/>
<path d="M50.303 52.8182H47.7879V55.3333H50.303V52.8182Z" fill="black"/>
<path d="M57.8485 52.8182H55.3333V55.3333H57.8485V52.8182Z" fill="black"/>
<path d="M60.3636 52.8182H57.8485V55.3333H60.3636V52.8182Z" fill="black"/>
<path d="M62.8788 52.8182H60.3636V55.3333H62.8788V52.8182Z" fill="black"/>
<path d="M67.9091 52.8182H65.3939V55.3333H67.9091V52.8182Z" fill="black"/>
<path d="M77.9697 52.8182H75.4546V55.3333H77.9697V52.8182Z" fill="black"/>
<path d="M80.4849 52.8182H77.9697V55.3333H80.4849V52.8182Z" fill="black"/>
<path d="M83 52.8182H80.4849V55.3333H83V52.8182Z" fill="black"/>
<path d="M2.51515 55.3333H0V57.8485H2.51515V55.3333Z" fill="black"/>
<path d="M5.0303 55.3333H2.51515V57.8485H5.0303V55.3333Z" fill="black"/>
<path d="M12.5758 55.3333H10.0606V57.8485H12.5758V55.3333Z" fill="black"/>
<path d="M15.0909 55.3333H12.5758V57.8485H15.0909V55.3333Z" fill="black"/>
<path d="M17.6061 55.3333H15.0909V57.8485H17.6061V55.3333Z" fill="black"/>
<path d="M20.1212 55.3333H17.6061V57.8485H20.1212V55.3333Z" fill="black"/>
<path d="M27.6667 55.3333H25.1515V57.8485H27.6667V55.3333Z" fill="black"/>
<path d="M35.2121 55.3333H32.697V57.8485H35.2121V55.3333Z" fill="black"/>
<path d="M37.7273 55.3333H35.2121V57.8485H37.7273V55.3333Z" fill="black"/>
<path d="M40.2424 55.3333H37.7273V57.8485H40.2424V55.3333Z" fill="black"/>
<path d="M42.7576 55.3333H40.2424V57.8485H42.7576V55.3333Z" fill="black"/>
<path d="M47.7879 55.3333H45.2727V57.8485H47.7879L47.7879 55.3333Z" fill="black"/>
<path d="M52.8182 55.3333H50.303V57.8485H52.8182V55.3333Z" fill="black"/>
<path d="M55.3333 55.3333H52.8182V57.8485H55.3333V55.3333Z" fill="black"/>
<path d="M57.8485 55.3333H55.3333V57.8485H57.8485V55.3333Z" fill="black"/>
<path d="M60.3636 55.3333H57.8485V57.8485H60.3636V55.3333Z" fill="black"/>
<path d="M62.8788 55.3333H60.3636V57.8485H62.8788V55.3333Z" fill="black"/>
<path d="M65.3939 55.3333H62.8788V57.8485H65.3939V55.3333Z" fill="black"/>
<path d="M72.9394 55.3333H70.4242V57.8485H72.9394V55.3333Z" fill="black"/>
<path d="M80.4849 55.3333H77.9697V57.8485H80.4849V55.3333Z" fill="black"/>
<path d="M2.51515 57.8485H0V60.3636H2.51515V57.8485Z" fill="black"/>
<path d="M5.0303 57.8485H2.51515V60.3636H5.0303V57.8485Z" fill="black"/>
<path d="M7.54545 57.8485H5.0303V60.3636H7.54545V57.8485Z" fill="black"/>
<path d="M10.0606 57.8485H7.54545V60.3636H10.0606V57.8485Z" fill="black"/>
<path d="M15.0909 57.8485H12.5758V60.3636H15.0909V57.8485Z" fill="black"/>
<path d="M35.2121 57.8485H32.697V60.3636H35.2121V57.8485Z" fill="black"/>
<path d="M37.7273 57.8485H35.2121V60.3636H37.7273V57.8485Z" fill="black"/>
<path d="M40.2424 57.8485H37.7273V60.3636H40.2424V57.8485Z" fill="black"/>
<path d="M45.2727 57.8485H42.7576V60.3636H45.2727V57.8485Z" fill="black"/>
<path d="M55.3333 57.8485H52.8182V60.3636H55.3333V57.8485Z" fill="black"/>
<path d="M57.8485 57.8485H55.3333V60.3636H57.8485V57.8485Z" fill="black"/>
<path d="M60.3636 57.8485H57.8485V60.3636H60.3636V57.8485Z" fill="black"/>
<path d="M62.8788 57.8485H60.3636V60.3636H62.8788V57.8485Z" fill="black"/>
<path d="M65.3939 57.8485H62.8788V60.3636H65.3939V57.8485Z" fill="black"/>
<path d="M75.4546 57.8485H72.9394V60.3636H75.4546V57.8485Z" fill="black"/>
<path d="M77.9697 57.8485H75.4546V60.3636H77.9697V57.8485Z" fill="black"/>
<path d="M80.4849 57.8485H77.9697V60.3636H80.4849V57.8485Z" fill="black"/>
<path d="M83 57.8485H80.4849V60.3636H83V57.8485Z" fill="black"/>
<path d="M5.0303 60.3636H2.51515V62.8788H5.0303V60.3636Z" fill="black"/>
<path d="M17.6061 60.3636H15.0909V62.8788H17.6061V60.3636Z" fill="black"/>
<path d="M20.1212 60.3636H17.6061V62.8788H20.1212V60.3636Z" fill="black"/>
<path d="M25.1515 60.3636H22.6364V62.8788H25.1515V60.3636Z" fill="black"/>
<path d="M27.6667 60.3636H25.1515V62.8788H27.6667V60.3636Z" fill="black"/>
<path d="M30.1818 60.3636H27.6667V62.8788H30.1818V60.3636Z" fill="black"/>
<path d="M45.2727 60.3636H42.7576V62.8788H45.2727V60.3636Z" fill="black"/>
<path d="M47.7879 60.3636H45.2727V62.8788H47.7879V60.3636Z" fill="black"/>
<path d="M50.303 60.3636H47.7879V62.8788H50.303V60.3636Z" fill="black"/>
<path d="M52.8182 60.3636H50.303V62.8788H52.8182V60.3636Z" fill="black"/>
<path d="M55.3333 60.3636H52.8182V62.8788H55.3333V60.3636Z" fill="black"/>
<path d="M57.8485 60.3636H55.3333V62.8788H57.8485V60.3636Z" fill="black"/>
<path d="M60.3636 60.3636H57.8485V62.8788H60.3636V60.3636Z" fill="black"/>
<path d="M62.8788 60.3636H60.3636V62.8788H62.8788V60.3636Z" fill="black"/>
<path d="M65.3939 60.3636H62.8788V62.8788H65.3939V60.3636Z" fill="black"/>
<path d="M67.9091 60.3636H65.3939V62.8788H67.9091V60.3636Z" fill="black"/>
<path d="M70.4242 60.3636H67.9091V62.8788H70.4242V60.3636Z" fill="black"/>
<path d="M72.9394 60.3636H70.4242V62.8788H72.9394V60.3636Z" fill="black"/>
<path d="M77.9697 60.3636H75.4546V62.8788H77.9697V60.3636Z" fill="black"/>
<path d="M83 60.3636H80.4849V62.8788H83V60.3636Z" fill="black"/>
<path d="M22.6364 62.8788H20.1212V65.3939H22.6364V62.8788Z" fill="black"/>
<path d="M25.1515 62.8788H22.6364V65.3939H25.1515V62.8788Z" fill="black"/>
<path d="M27.6667 62.8788H25.1515V65.3939H27.6667V62.8788Z" fill="black"/>
<path d="M32.697 62.8788H30.1818V65.3939H32.697V62.8788Z" fill="black"/>
<path d="M37.7273 62.8788H35.2121V65.3939H37.7273V62.8788Z" fill="black"/>
<path d="M45.2727 62.8788H42.7576V65.3939H45.2727V62.8788Z" fill="black"/>
<path d="M47.7879 62.8788H45.2727V65.3939H47.7879V62.8788Z" fill="black"/>
<path d="M50.303 62.8788H47.7879V65.3939H50.303V62.8788Z" fill="black"/>
<path d="M55.3333 62.8788H52.8182V65.3939H55.3333V62.8788Z" fill="black"/>
<path d="M62.8788 62.8788H60.3636V65.3939H62.8788V62.8788Z" fill="black"/>
<path d="M72.9394 62.8788H70.4242V65.3939H72.9394V62.8788Z" fill="black"/>
<path d="M77.9697 62.8788H75.4546V65.3939H77.9697V62.8788Z" fill="black"/>
<path d="M80.4849 62.8788H77.9697V65.3939H80.4849V62.8788Z" fill="black"/>
<path d="M83 62.8788H80.4849V65.3939H83V62.8788Z" fill="black"/>
<path d="M2.51515 65.3939H0V67.9091H2.51515V65.3939Z" fill="black"/>
<path d="M5.0303 65.3939H2.51515V67.9091H5.0303V65.3939Z" fill="black"/>
<path d="M7.54545 65.3939H5.0303V67.9091H7.54545V65.3939Z" fill="black"/>
<path d="M10.0606 65.3939H7.54545V67.9091H10.0606V65.3939Z" fill="black"/>
<path d="M12.5758 65.3939H10.0606V67.9091H12.5758V65.3939Z" fill="black"/>
<path d="M15.0909 65.3939H12.5758V67.9091H15.0909V65.3939Z" fill="black"/>
<path d="M17.6061 65.3939H15.0909V67.9091H17.6061V65.3939Z" fill="black"/>
<path d="M22.6364 65.3939H20.1212V67.9091H22.6364V65.3939Z" fill="black"/>
<path d="M25.1515 65.3939H22.6364V67.9091H25.1515V65.3939Z" fill="black"/>
<path d="M27.6667 65.3939H25.1515V67.9091H27.6667V65.3939Z" fill="black"/>
<path d="M32.697 65.3939H30.1818V67.9091H32.697V65.3939Z" fill="black"/>
<path d="M35.2121 65.3939H32.697V67.9091H35.2121V65.3939Z" fill="black"/>
<path d="M37.7273 65.3939H35.2121V67.9091H37.7273V65.3939Z" fill="black"/>
<path d="M40.2424 65.3939H37.7273V67.9091H40.2424V65.3939Z" fill="black"/>
<path d="M42.7576 65.3939H40.2424V67.9091H42.7576V65.3939Z" fill="black"/>
<path d="M47.7879 65.3939H45.2727V67.9091H47.7879V65.3939Z" fill="black"/>
<path d="M55.3333 65.3939H52.8182V67.9091H55.3333V65.3939Z" fill="black"/>
<path d="M57.8485 65.3939H55.3333V67.9091H57.8485V65.3939Z" fill="black"/>
<path d="M60.3636 65.3939H57.8485V67.9091H60.3636V65.3939Z" fill="black"/>
<path d="M62.8788 65.3939H60.3636V67.9091H62.8788V65.3939Z" fill="black"/>
<path d="M67.9091 65.3939H65.3939V67.9091H67.9091V65.3939Z" fill="black"/>
<path d="M72.9394 65.3939H70.4242V67.9091H72.9394V65.3939Z" fill="black"/>
<path d="M75.4546 65.3939H72.9394V67.9091H75.4546V65.3939Z" fill="black"/>
<path d="M80.4849 65.3939H77.9697V67.9091H80.4849V65.3939Z" fill="black"/>
<path d="M83 65.3939H80.4849V67.9091H83V65.3939Z" fill="black"/>
<path d="M2.51515 67.9091H0V70.4242H2.51515V67.9091Z" fill="black"/>
<path d="M17.6061 67.9091H15.0909V70.4242H17.6061V67.9091Z" fill="black"/>
<path d="M22.6364 67.9091H20.1212V70.4242H22.6364V67.9091Z" fill="black"/>
<path d="M25.1515 67.9091H22.6364V70.4242H25.1515V67.9091Z" fill="black"/>
<path d="M27.6667 67.9091H25.1515V70.4242H27.6667V67.9091Z" fill="black"/>
<path d="M32.697 67.9091H30.1818V70.4242H32.697V67.9091Z" fill="black"/>
<path d="M37.7273 67.9091H35.2121V70.4242H37.7273V67.9091Z" fill="black"/>
<path d="M45.2727 67.9091H42.7576V70.4242H45.2727V67.9091Z" fill="black"/>
<path d="M50.303 67.9091H47.7879L47.7879 70.4242H50.303V67.9091Z" fill="black"/>
<path d="M52.8182 67.9091H50.303V70.4242H52.8182V67.9091Z" fill="black"/>
<path d="M57.8485 67.9091H55.3333V70.4242H57.8485V67.9091Z" fill="black"/>
<path d="M62.8788 67.9091H60.3636V70.4242H62.8788V67.9091Z" fill="black"/>
<path d="M72.9394 67.9091H70.4242V70.4242H72.9394V67.9091Z" fill="black"/>
<path d="M2.51515 70.4242H0V72.9394H2.51515V70.4242Z" fill="black"/>
<path d="M7.54545 70.4242H5.0303V72.9394H7.54545V70.4242Z" fill="black"/>
<path d="M10.0606 70.4242H7.54545V72.9394H10.0606V70.4242Z" fill="black"/>
<path d="M12.5758 70.4242H10.0606V72.9394H12.5758V70.4242Z" fill="black"/>
<path d="M17.6061 70.4242H15.0909V72.9394H17.6061V70.4242Z" fill="black"/>
<path d="M27.6667 70.4242H25.1515V72.9394H27.6667V70.4242Z" fill="black"/>
<path d="M30.1818 70.4242H27.6667V72.9394H30.1818V70.4242Z" fill="black"/>
<path d="M35.2121 70.4242H32.697V72.9394H35.2121V70.4242Z" fill="black"/>
<path d="M37.7273 70.4242H35.2121V72.9394H37.7273V70.4242Z" fill="black"/>
<path d="M42.7576 70.4242H40.2424V72.9394H42.7576V70.4242Z" fill="black"/>
<path d="M60.3636 70.4242H57.8485V72.9394H60.3636V70.4242Z" fill="black"/>
<path d="M62.8788 70.4242H60.3636V72.9394H62.8788V70.4242Z" fill="black"/>
<path d="M65.3939 70.4242H62.8788V72.9394H65.3939V70.4242Z" fill="black"/>
<path d="M67.9091 70.4242H65.3939V72.9394H67.9091V70.4242Z" fill="black"/>
<path d="M70.4242 70.4242H67.9091V72.9394H70.4242V70.4242Z" fill="black"/>
<path d="M72.9394 70.4242H70.4242V72.9394H72.9394V70.4242Z" fill="black"/>
<path d="M75.4546 70.4242H72.9394V72.9394H75.4546V70.4242Z" fill="black"/>
<path d="M77.9697 70.4242H75.4546V72.9394H77.9697V70.4242Z" fill="black"/>
<path d="M83 70.4242H80.4849V72.9394H83V70.4242Z" fill="black"/>
<path d="M2.51515 72.9394H0V75.4546H2.51515V72.9394Z" fill="black"/>
<path d="M7.54545 72.9394H5.0303V75.4546H7.54545V72.9394Z" fill="black"/>
<path d="M10.0606 72.9394H7.54545V75.4546H10.0606V72.9394Z" fill="black"/>
<path d="M12.5758 72.9394H10.0606V75.4546H12.5758V72.9394Z" fill="black"/>
<path d="M17.6061 72.9394H15.0909V75.4546H17.6061V72.9394Z" fill="black"/>
<path d="M22.6364 72.9394H20.1212V75.4546H22.6364V72.9394Z" fill="black"/>
<path d="M30.1818 72.9394H27.6667V75.4546H30.1818V72.9394Z" fill="black"/>
<path d="M32.697 72.9394H30.1818V75.4546H32.697V72.9394Z" fill="black"/>
<path d="M40.2424 72.9394H37.7273V75.4546H40.2424V72.9394Z" fill="black"/>
<path d="M45.2727 72.9394H42.7576V75.4546H45.2727V72.9394Z" fill="black"/>
<path d="M57.8485 72.9394H55.3333V75.4546H57.8485V72.9394Z" fill="black"/>
<path d="M60.3636 72.9394H57.8485V75.4546H60.3636V72.9394Z" fill="black"/>
<path d="M65.3939 72.9394H62.8788V75.4546H65.3939V72.9394Z" fill="black"/>
<path d="M67.9091 72.9394H65.3939V75.4546H67.9091V72.9394Z" fill="black"/>
<path d="M72.9394 72.9394H70.4242V75.4546H72.9394V72.9394Z" fill="black"/>
<path d="M77.9697 72.9394H75.4546V75.4546H77.9697V72.9394Z" fill="black"/>
<path d="M83 72.9394H80.4849V75.4546H83V72.9394Z" fill="black"/>
<path d="M2.51515 75.4546H0V77.9697H2.51515V75.4546Z" fill="black"/>
<path d="M7.54545 75.4546H5.0303V77.9697H7.54545V75.4546Z" fill="black"/>
<path d="M10.0606 75.4546H7.54545V77.9697H10.0606V75.4546Z" fill="black"/>
<path d="M12.5758 75.4546H10.0606V77.9697H12.5758V75.4546Z" fill="black"/>
<path d="M17.6061 75.4546H15.0909V77.9697H17.6061V75.4546Z" fill="black"/>
<path d="M22.6364 75.4546H20.1212V77.9697H22.6364V75.4546Z" fill="black"/>
<path d="M27.6667 75.4546H25.1515V77.9697H27.6667V75.4546Z" fill="black"/>
<path d="M35.2121 75.4546H32.697V77.9697H35.2121V75.4546Z" fill="black"/>
<path d="M47.7879 75.4546H45.2727V77.9697H47.7879V75.4546Z" fill="black"/>
<path d="M55.3333 75.4546H52.8182V77.9697H55.3333V75.4546Z" fill="black"/>
<path d="M67.9091 75.4546H65.3939V77.9697H67.9091V75.4546Z" fill="black"/>
<path d="M77.9697 75.4546H75.4546V77.9697H77.9697V75.4546Z" fill="black"/>
<path d="M2.51515 77.9697H0V80.4849H2.51515V77.9697Z" fill="black"/>
<path d="M17.6061 77.9697H15.0909V80.4849H17.6061V77.9697Z" fill="black"/>
<path d="M25.1515 77.9697H22.6364V80.4849H25.1515V77.9697Z" fill="black"/>
<path d="M35.2121 77.9697H32.697V80.4849H35.2121V77.9697Z" fill="black"/>
<path d="M37.7273 77.9697H35.2121V80.4849H37.7273V77.9697Z" fill="black"/>
<path d="M40.2424 77.9697H37.7273V80.4849H40.2424V77.9697Z" fill="black"/>
<path d="M42.7576 77.9697H40.2424V80.4849H42.7576V77.9697Z" fill="black"/>
<path d="M45.2727 77.9697H42.7576V80.4849H45.2727V77.9697Z" fill="black"/>
<path d="M47.7879 77.9697H45.2727V80.4849H47.7879V77.9697Z" fill="black"/>
<path d="M52.8182 77.9697H50.303V80.4849H52.8182V77.9697Z" fill="black"/>
<path d="M55.3333 77.9697H52.8182V80.4849H55.3333V77.9697Z" fill="black"/>
<path d="M70.4242 77.9697H67.9091V80.4849H70.4242V77.9697Z" fill="black"/>
<path d="M72.9394 77.9697H70.4242V80.4849H72.9394V77.9697Z" fill="black"/>
<path d="M75.4546 77.9697H72.9394V80.4849H75.4546V77.9697Z" fill="black"/>
<path d="M83 77.9697H80.4849V80.4849H83V77.9697Z" fill="black"/>
<path d="M2.51515 80.4849H0V83H2.51515V80.4849Z" fill="black"/>
<path d="M5.0303 80.4849H2.51515V83H5.0303V80.4849Z" fill="black"/>
<path d="M7.54545 80.4849H5.0303V83H7.54545V80.4849Z" fill="black"/>
<path d="M10.0606 80.4849H7.54545V83H10.0606V80.4849Z" fill="black"/>
<path d="M12.5758 80.4849H10.0606V83H12.5758V80.4849Z" fill="black"/>
<path d="M15.0909 80.4849H12.5758V83H15.0909V80.4849Z" fill="black"/>
<path d="M17.6061 80.4849H15.0909V83H17.6061V80.4849Z" fill="black"/>
<path d="M22.6364 80.4849H20.1212V83H22.6364V80.4849Z" fill="black"/>
<path d="M25.1515 80.4849H22.6364V83H25.1515V80.4849Z" fill="black"/>
<path d="M27.6667 80.4849H25.1515V83H27.6667V80.4849Z" fill="black"/>
<path d="M30.1818 80.4849H27.6667V83H30.1818V80.4849Z" fill="black"/>
<path d="M35.2121 80.4849H32.697V83H35.2121V80.4849Z" fill="black"/>
<path d="M47.7879 80.4849H45.2727V83H47.7879V80.4849Z" fill="black"/>
<path d="M50.303 80.4849H47.7879V83H50.303V80.4849Z" fill="black"/>
<path d="M52.8182 80.4849H50.303V83H52.8182V80.4849Z" fill="black"/>
<path d="M55.3333 80.4849H52.8182V83H55.3333V80.4849Z" fill="black"/>
<path d="M57.8485 80.4849H55.3333V83H57.8485V80.4849Z" fill="black"/>
<path d="M60.3636 80.4849H57.8485V83H60.3636V80.4849Z" fill="black"/>
<path d="M62.8788 80.4849H60.3636V83H62.8788V80.4849Z" fill="black"/>
<path d="M65.3939 80.4849H62.8788V83H65.3939V80.4849Z" fill="black"/>
<path d="M70.4242 80.4849H67.9091V83H70.4242V80.4849Z" fill="black"/>
<path d="M72.9394 80.4849H70.4242V83H72.9394V80.4849Z" fill="black"/>
<path d="M77.9697 80.4849H75.4546V83H77.9697V80.4849Z" fill="black"/>
</svg>
