<svg width="32" height="28" viewBox="0 0 32 28" fill="none" xmlns="http://www.w3.org/2000/svg">
<path d="M20.747 6.87385H9.49902V1.49975C9.49902 0.669888 10.1689 0 10.9988 0H20.747V6.87385Z" fill="#1DA366"/>
<path d="M31.9941 6.87385H20.7461V0H30.4943C31.3242 0 31.9941 0.669888 31.9941 1.49975V6.87385Z" fill="#4DB47E"/>
<path d="M9.49902 13.7476V20.6214V25.9955C9.49902 26.8254 10.1689 27.4953 10.9937 27.4953H30.5052C31.3301 27.4953 31.9999 26.8254 31.9999 25.9955V20.6214V13.7476H9.49902Z" fill="#195D38"/>
<path d="M20.747 6.87329H9.49902V13.7471H20.747V6.87329Z" fill="#0A7D41"/>
<path d="M31.9941 6.87329H20.7461V13.7471H31.9941V6.87329Z" fill="#1DA366"/>
<path d="M31.9941 13.7476H20.7461V20.6214H31.9941V13.7476Z" fill="#0A7D41"/>
<g filter="url(#filter0_d_73_1011)">
<path d="M16.4974 21.2465H2.49991C2.22496 21.2465 2 21.0216 2 20.7466V6.74894C2 6.47399 2.22496 6.24902 2.49991 6.24902H16.4974C16.7723 6.24902 16.9973 6.47399 16.9973 6.74894V20.7466C16.9973 21.0216 16.7723 21.2465 16.4974 21.2465Z" fill="url(#paint0_linear_73_1011)"/>
</g>
<path d="M11.5385 17.9971L10.4137 16.3924L9.49386 15.0976L7.41425 17.9971H5.26465L8.34908 13.7128L5.41462 9.49854H7.54423L8.68401 11.1283L9.49386 12.3331L10.2987 11.1283L11.4235 9.49854H13.5531L10.6187 13.7128L13.7231 17.9971H11.5385Z" fill="white"/>
<defs>
<filter id="filter0_d_73_1011" x="0" y="2.24902" width="22.9971" height="22.9976" filterUnits="userSpaceOnUse" color-interpolation-filters="sRGB">
<feFlood flood-opacity="0" result="BackgroundImageFix"/>
<feColorMatrix in="SourceAlpha" type="matrix" values="0 0 0 0 0 0 0 0 0 0 0 0 0 0 0 0 0 0 127 0" result="hardAlpha"/>
<feOffset dx="2"/>
<feGaussianBlur stdDeviation="2"/>
<feComposite in2="hardAlpha" operator="out"/>
<feColorMatrix type="matrix" values="0 0 0 0 0 0 0 0 0 0 0 0 0 0 0 0 0 0 0.25 0"/>
<feBlend mode="normal" in2="BackgroundImageFix" result="effect1_dropShadow_73_1011"/>
<feBlend mode="normal" in="SourceGraphic" in2="effect1_dropShadow_73_1011" result="shape"/>
</filter>
<linearGradient id="paint0_linear_73_1011" x1="-5.86152" y1="2.17015" x2="16.9431" y2="19.3585" gradientUnits="userSpaceOnUse">
<stop offset="0.1123" stop-color="#17874E"/>
<stop offset="0.8823" stop-color="#0F6B35"/>
</linearGradient>
</defs>
</svg>
