<svg width="20" height="30" viewBox="0 0 20 30" fill="none" xmlns="http://www.w3.org/2000/svg">
<path d="M5.0003 30.0005C7.76189 30.0005 10.0006 27.7618 10.0006 25.0003V20.0002H5.0003C2.23871 20.0002 0 22.2389 0 25.0003C0 27.7618 2.23871 30.0005 5.0003 30.0005Z" fill="#0ACF83"/>
<path d="M0 15.0006C0 12.2391 2.23871 10.0005 5.0003 10.0005H10.0006V20.0007H5.0003C2.23871 20.0007 0 17.7621 0 15.0006Z" fill="#A259FF"/>
<path d="M0 5.0001C0 2.23862 2.23871 0 5.0003 0H10.0006V10.0002H5.0003C2.23871 10.0002 0 7.76159 0 5.0001Z" fill="#F24E1E"/>
<path d="M9.99902 0H14.9993C17.7609 0 19.9996 2.23862 19.9996 5.0001C19.9996 7.76159 17.7609 10.0002 14.9993 10.0002H9.99902V0Z" fill="#FF7262"/>
<path d="M19.9996 15.0006C19.9996 17.7621 17.7609 20.0007 14.9993 20.0007C12.2377 20.0007 9.99902 17.7621 9.99902 15.0006C9.99902 12.2391 12.2377 10.0005 14.9993 10.0005C17.7609 10.0005 19.9996 12.2391 19.9996 15.0006Z" fill="#1ABCFE"/>
</svg>
