<svg width="45" height="34" viewBox="0 0 45 34" fill="none" xmlns="http://www.w3.org/2000/svg">
<path d="M44.2372 13.8504C44.0987 13.9889 43.9602 13.9889 43.8216 14.1274C44.0987 14.1274 44.2372 14.2659 44.5142 14.2659C44.5142 14.4044 44.5142 14.5429 44.5142 14.5429C44.2372 14.6814 43.9602 14.9584 43.6831 15.097C42.2981 15.2355 41.1901 15.928 40.2205 16.759C39.3895 17.313 38.42 17.867 37.589 18.4211C37.312 18.5596 37.0349 18.5596 36.6194 18.5596C35.6499 18.4211 34.6804 18.144 33.5723 18.0055C31.9103 17.867 30.1097 17.867 28.4477 17.7285C28.3092 17.7285 28.1707 17.7285 28.0322 17.7285C27.0626 17.867 25.9546 18.0055 24.8466 18.144C25.1236 18.4211 25.4006 18.5596 25.6776 18.8366C27.8937 20.4986 30.1097 22.0222 32.1873 23.8227C33.4338 24.9307 34.6804 26.1773 35.7884 27.2853C36.0654 27.5623 36.3424 27.9778 36.6194 28.3934C37.1735 29.3629 37.1735 30.0554 36.3424 30.8864C36.2039 31.1634 36.0654 31.3019 35.7884 31.7175C35.5114 31.7175 35.2344 31.7175 35.0959 31.5789C33.7108 31.0249 32.4643 30.1939 31.2178 29.3629C29.5557 28.1163 27.8937 27.0083 26.3701 25.6233C24.8466 24.3767 23.6 22.9917 22.0765 21.7452C21.107 20.9141 20.1374 20.0831 19.1679 19.2521C18.3369 20.3601 17.5059 21.4681 17.3674 22.8532C17.2289 23.4072 17.2289 23.8227 17.2289 24.3767C17.2289 25.3463 17.0903 26.1773 16.6748 27.0083C16.2593 28.1163 15.9823 29.0859 15.9823 30.3324C15.9823 31.4404 15.7053 32.41 14.7358 33.1025C14.4588 33.3795 14.0433 33.518 13.6277 33.6565C13.2122 32.964 13.2122 32.2715 13.3507 31.5789C13.4892 30.4709 13.6277 29.5014 13.7662 28.3934C14.0433 27.1468 14.3203 25.9003 14.4588 24.6537C14.5973 24.2382 14.5973 23.6842 14.7358 23.1302C14.4588 23.2687 14.1818 23.4072 14.0433 23.5457C13.2122 24.0997 12.5197 24.5152 11.6887 25.0693C10.5807 25.9003 9.47262 26.8698 8.50309 27.8393C7.39506 28.9474 6.14852 29.9169 4.62497 30.3324C3.37844 30.7479 1.99339 31.0249 0.608353 30.4709C0.608353 30.3324 0.608352 30.1939 0.746857 30.1939C2.68591 29.0859 3.65544 27.7008 4.90198 26.4543C6.84104 24.6537 8.64159 22.8532 10.7192 21.1911C11.8272 20.3601 12.9352 19.3906 14.0433 18.5596C14.1818 18.4211 14.3203 18.2825 14.5973 18.0055C12.5197 17.313 10.5807 16.759 8.50309 17.036C7.11805 17.1745 5.87151 17.1745 4.48647 16.8975C2.82442 16.482 1.43938 15.651 0.331344 14.2659C0.0543359 13.8504 -0.0841683 13.5734 0.0543358 12.8809C3.93245 12.4654 7.81057 12.4654 11.9657 12.6039C11.6887 12.3269 11.5502 12.1884 11.5502 12.0499C10.0266 10.5263 8.50309 8.86427 6.97954 7.34072C6.56403 6.92521 6.28702 6.6482 5.87151 6.23269C5.73301 6.09418 5.5945 5.95568 5.5945 5.54017C5.73301 4.57064 5.73301 4.57064 6.70254 4.70914C8.08758 4.84765 9.33411 5.54017 10.4421 6.37119C12.2427 7.75623 13.9048 9.14127 15.7053 10.6648C16.1208 10.9418 16.5363 11.3573 17.0903 11.7729C17.2289 10.3878 17.3674 9.00277 17.6444 7.75623C17.9214 6.37119 18.1984 5.12465 18.6139 3.87812C19.0294 2.63158 18.7524 1.24654 19.5834 0C20.6915 1.10803 21.384 2.35457 21.384 3.87812C21.384 4.43213 21.2455 4.98615 21.107 5.54017C20.83 7.47922 20.4144 9.55679 20.1374 11.4958C20.1374 11.7729 20.1374 11.9114 20.1374 12.1884C20.6915 12.3269 20.9685 12.0499 21.2455 11.6343C22.3535 10.1108 23.7385 8.86427 25.1236 7.61773C27.0626 5.95568 29.0017 4.43213 30.9408 2.90859C31.2178 2.63158 31.6333 2.35457 32.0488 1.93906C32.1873 2.07756 32.3258 2.21607 32.4643 2.35457C33.0183 3.04709 33.4338 3.73961 33.8493 4.57064C34.2649 5.12465 34.1264 5.67867 33.9879 6.37119C33.7108 7.06371 33.4338 7.34072 32.7413 7.34072C32.4643 7.34072 32.1873 7.47923 32.0488 7.75623C31.3563 8.31025 30.6638 9.00277 29.8327 9.69529C29.0017 10.3878 28.0322 10.9418 27.2012 11.6343C26.9241 11.7729 26.6471 12.0499 26.2316 12.3269C26.9241 12.4654 27.4782 12.6039 28.0322 12.7424C29.1402 12.8809 30.2482 13.1579 31.3563 13.2964C32.3258 13.4349 33.4338 13.2964 34.4034 13.1579C36.2039 13.1579 38.0045 12.6039 39.805 12.7424C40.6361 12.8809 41.6056 13.0194 42.4366 13.1579C42.4366 13.1579 42.5751 13.1579 42.5751 13.2964C42.7136 13.8504 43.5446 13.5734 44.2372 13.8504Z" fill="#081219"/>
</svg>
