<svg width="49" height="49" viewBox="0 0 49 49" fill="none" xmlns="http://www.w3.org/2000/svg">
<path d="M19.2521 39.5254C19.7785 39.5254 20.2091 39.334 20.576 38.9831L32.9855 26.8607C33.4162 26.4141 33.6395 25.9515 33.6395 25.3773C33.6395 24.819 33.4321 24.3245 32.9855 23.9098L20.576 11.7715C20.2091 11.4206 19.7785 11.2292 19.2521 11.2292C18.1834 11.2292 17.354 12.0586 17.354 13.1113C17.354 13.6217 17.5773 14.1162 17.9282 14.4831L29.1095 25.3932L17.9282 36.2715C17.5614 36.6543 17.354 37.1169 17.354 37.6432C17.354 38.696 18.1834 39.5254 19.2521 39.5254Z" fill="#363636"/>
</svg>
