<svg width="50" height="50" viewBox="0 0 50 50" fill="none" xmlns="http://www.w3.org/2000/svg">
<path d="M30.8864 26.8694C35.5955 30.609 40.1662 34.2101 44.7368 37.9497C45.4293 38.5038 46.1219 39.1963 46.8144 39.8888C47.2299 40.3043 47.5069 40.8583 47.0914 41.4123C46.5374 42.1049 45.8449 41.9664 45.2908 41.5508C45.0138 41.2738 44.5983 40.9968 44.3213 40.7198C39.1966 36.7032 34.2105 32.6866 29.0858 28.8085C28.8088 28.5315 28.3933 28.2545 28.1163 27.9774C27.2853 27.4234 27.0083 27.8389 27.1468 28.67C27.2853 31.0245 27.4238 33.3791 27.5623 35.7337V37.8112C27.5623 38.3653 27.1468 38.6423 26.5928 38.7808C26.0388 38.7808 25.6232 38.5038 25.4847 37.9497C25.3462 37.3957 25.3462 36.8417 25.3462 36.1492C25.2077 33.7946 25.0692 31.44 24.7922 29.0855C24.7922 28.8085 24.7922 28.393 24.3767 28.2544C23.9612 28.1159 23.8227 28.5315 23.5457 28.8085C21.0526 31.9941 18.698 35.3182 16.205 38.5038C15.9279 38.7808 15.7894 39.1963 15.5124 39.4733C15.0969 40.0273 14.4044 40.3043 13.7119 39.8888C13.0194 39.4733 13.1579 38.7808 13.5734 38.0882C13.8504 37.6727 14.1274 37.3957 14.2659 37.1187C16.759 33.7946 19.252 30.4705 21.6066 27.1464C21.8836 26.8694 22.2991 26.5924 22.0221 26.0384C21.7451 25.6229 21.3296 25.7614 20.9141 25.7614C19.8061 25.7614 18.698 25.8999 17.59 25.8999C16.759 25.8999 15.6509 26.1769 15.6509 24.9304C15.5124 23.6838 16.6205 23.5453 17.59 23.5453C18.421 23.5453 19.252 23.5453 20.0831 23.4068C20.3601 23.4068 20.6371 23.2683 20.7756 23.1298C21.0526 22.7143 20.6371 22.5758 20.3601 22.4373C18.5595 21.1907 16.759 19.9442 14.9584 18.6977C11.6343 16.4816 8.31022 14.2655 4.98612 12.0495C4.4321 11.3569 4.01659 11.0799 3.46257 10.6644C2.77005 10.1104 2.21604 9.41788 3.04706 8.58686C3.73958 7.75583 4.2936 8.30985 4.98612 8.86387C7.7562 11.3569 11.0803 12.8805 13.9889 14.9581C16.8975 16.8971 19.8061 18.8362 22.5761 20.7752C22.8532 20.9137 23.1302 21.1907 23.4072 21.1907C23.9612 21.0522 23.8227 20.4982 23.8227 20.0827V12.188C23.8227 11.4954 24.0997 10.8029 25.0692 10.8029C25.9002 10.8029 26.0388 11.4954 26.0388 12.0495V14.404C26.0388 15.9276 26.0388 17.4511 26.1773 18.9747C26.1773 19.2517 26.1773 19.8057 26.5928 19.8057C27.0083 19.8057 27.1468 19.5287 27.2853 19.2517C29.3629 16.4816 31.3019 13.85 33.3795 11.0799C33.795 10.5259 34.349 9.8334 34.903 9.27938C35.3185 8.86387 35.734 8.72536 36.2881 9.00237C36.8421 9.41788 36.8421 9.9719 36.5651 10.5259C35.3185 12.3265 34.072 13.9885 32.8255 15.6506C31.4404 17.5896 30.0554 19.5287 28.6703 21.4677C28.1163 22.1603 28.2548 22.7143 29.2243 22.7143C30.6094 22.7143 32.1329 22.7143 33.518 22.8528C34.072 22.8528 34.7645 22.8528 35.3185 22.9913C35.8725 22.9913 36.2881 23.2683 36.2881 23.9608C36.2881 24.6533 35.8725 25.0689 35.18 25.0689C34.4875 25.2074 33.795 25.0689 33.1025 25.0689H31.5789C30.8864 25.0689 29.7784 24.6533 29.5014 25.4844C29.2243 26.3154 30.4709 26.4539 30.8864 26.8694Z" stroke="#363636" stroke-miterlimit="10"/>
</svg>
