<svg width="49" height="49" viewBox="0 0 49 49" fill="none" xmlns="http://www.w3.org/2000/svg">
<path d="M27.355 38.9831L14.9455 26.8447C14.5148 26.4141 14.2915 25.9355 14.2915 25.3773C14.2915 24.819 14.5148 24.3086 14.9614 23.8939L27.3709 11.7715C27.7218 11.4206 28.1685 11.2292 28.6789 11.2292C29.7476 11.2292 30.577 12.0586 30.577 13.1113C30.577 13.6217 30.3696 14.1162 30.0028 14.4831L18.8374 25.3613L30.0028 36.2715C30.3696 36.6383 30.577 37.1169 30.577 37.6432C30.577 38.696 29.7476 39.5254 28.6789 39.5254C28.1685 39.5254 27.7218 39.334 27.355 38.9831Z" fill="#363636" fill-opacity="0.5"/>
</svg>
