<svg width="50" height="50" viewBox="0 0 50 50" fill="none" xmlns="http://www.w3.org/2000/svg">
<path d="M46.953 22.161C46.8145 22.2995 46.676 22.2995 46.5375 22.438C46.8145 22.438 46.953 22.5765 47.23 22.5765V22.8535C46.953 22.992 46.676 23.269 46.399 23.4075C45.0139 23.546 43.9059 24.2385 42.9364 25.0696C42.1053 25.6236 41.1358 26.1776 40.3048 26.7316C40.0278 26.8701 39.7508 26.8701 39.3353 26.8701C38.3657 26.7316 37.3962 26.4546 36.2882 26.3161C34.6261 26.1776 32.8256 26.1776 31.1635 26.0391H30.748C29.7785 26.1776 28.6704 26.3161 27.5624 26.4546C27.8394 26.7316 28.1164 26.8701 28.3934 27.1471C30.6095 28.8092 32.8256 30.3327 34.9031 32.1333C36.1497 33.2413 37.3962 34.4878 38.5042 35.5959C38.7812 35.8729 39.0582 36.2884 39.3353 36.7039C39.8893 37.6734 39.8893 38.3659 39.0582 39.197C38.9197 39.474 38.7812 39.6125 38.5042 40.028C38.2272 40.028 37.9502 40.028 37.8117 39.8895C36.4267 39.3355 35.1801 38.5045 33.9336 37.6734C32.2715 36.4269 30.6095 35.3189 29.0859 33.9338C27.5624 32.6873 26.3159 31.3022 24.7923 30.0557C23.8228 29.2247 22.8533 28.3936 21.8837 27.5626C21.0527 28.6707 20.2217 29.7787 20.0832 31.1637C19.9447 31.7177 19.9447 32.1333 19.9447 32.6873C19.9447 33.6568 19.8062 34.4878 19.3907 35.3189C18.9751 36.4269 18.6981 37.3964 18.6981 38.643C18.6981 39.751 18.4211 40.7205 17.4516 41.413C17.1746 41.69 16.7591 41.8286 16.3436 41.9671C15.9281 41.2745 15.9281 40.582 16.0666 39.8895C16.2051 38.7815 16.3436 37.8119 16.4821 36.7039C16.7591 35.4574 17.0361 34.2108 17.1746 32.9643C17.3131 32.5488 17.3131 31.9948 17.4516 31.4407C17.1746 31.5792 16.8976 31.7177 16.7591 31.8563C15.9281 32.4103 15.2355 32.8258 14.4045 33.3798C13.2965 34.2108 12.1884 35.1804 11.2189 36.1499C10.1109 37.2579 8.86434 38.2274 7.34079 38.643C6.09426 39.0585 4.70921 39.3355 3.32417 38.7815C3.32417 38.643 3.32417 38.5045 3.46268 38.5045C5.40174 37.3964 6.37126 36.0114 7.6178 34.7648C9.55686 32.9643 11.3574 31.1637 13.435 29.5017C14.543 28.6707 15.651 27.7011 16.7591 26.8701C16.8976 26.7316 17.0361 26.5931 17.3131 26.3161C15.2355 25.6236 13.2965 25.0695 11.2189 25.3466C9.83387 25.4851 8.58733 25.4851 7.20229 25.2081C5.54024 24.7925 4.1552 23.9615 3.04716 22.5765C2.77016 22.161 2.63165 21.884 2.77016 21.1914C6.64827 20.7759 10.5264 20.7759 14.6815 20.9144C14.4045 20.6374 14.266 20.4989 14.266 20.3604C12.7425 18.8369 11.2189 17.1748 9.69536 15.6513L8.58733 14.5432C8.44883 14.4047 8.31032 14.2662 8.31032 13.8507C8.40266 13.2044 8.772 12.9274 9.41836 13.0197C10.8034 13.1582 12.0499 13.8507 13.158 14.6817C14.9585 16.0668 16.6206 17.4518 18.4211 18.9754C18.8366 19.2524 19.2522 19.6679 19.8062 20.0834C19.9447 18.6984 20.0832 17.3133 20.3602 16.0668C20.6372 14.6817 20.9142 13.4352 21.3297 12.1887C21.7452 10.9421 21.4682 9.55708 22.2992 8.31055C23.4073 9.41858 24.0998 10.6651 24.0998 12.1887C24.0998 12.7427 23.9613 13.2967 23.8228 13.8507C23.5458 15.7898 23.1303 17.8673 22.8533 19.8064V20.4989C23.4073 20.6374 23.6843 20.3604 23.9613 19.9449C25.0693 18.4213 26.4544 17.1748 27.8394 15.9283C29.7785 14.2662 31.7175 12.7427 33.6566 11.2191C33.9336 10.9421 34.3491 10.6651 34.7646 10.2496C34.9031 10.3881 35.0416 10.5266 35.1801 10.6651C35.7341 11.3576 36.1497 12.0502 36.5652 12.8812C36.9807 13.4352 36.8422 13.9892 36.7037 14.6817C36.4267 15.3743 36.1497 15.6513 35.4571 15.6513C35.1801 15.6513 34.9031 15.7898 34.7646 16.0668C34.0721 16.6208 33.3796 17.3133 32.5486 18.0058C31.7175 18.6984 30.748 19.2524 29.917 19.9449C29.64 20.0834 29.363 20.3604 28.9474 20.6374C29.64 20.7759 30.194 20.9144 30.748 21.0529C31.856 21.1914 32.9641 21.4684 34.0721 21.6069C35.0416 21.7455 36.1497 21.6069 37.1192 21.4684C38.9197 21.4684 40.7203 20.9144 42.5209 21.0529C43.3519 21.1914 44.3214 21.3299 45.1524 21.4684C45.1524 21.4684 45.2909 21.4684 45.2909 21.6069C45.4294 22.161 46.2605 21.884 46.953 22.161Z" stroke="#363636" stroke-linecap="round" stroke-linejoin="round"/>
</svg>
