<svg width="49" height="49" viewBox="0 0 49 49" fill="none" xmlns="http://www.w3.org/2000/svg">
<path d="M9.6592 39.8414H38.6562C42.3338 39.8414 44.2489 37.9433 44.2489 34.3165V13.6915C44.2489 10.0648 42.3338 8.16666 38.6562 8.16666H9.6592C5.99856 8.16666 4.0835 10.0478 4.0835 13.6915V34.3165C4.0835 37.9433 5.99856 39.8414 9.6592 39.8414ZM9.87952 36.4689C8.32035 36.4689 7.45603 35.6554 7.45603 34.0115V13.9966C7.45603 12.3527 8.32035 11.5392 9.87952 11.5392H17.6075V36.4689H9.87952ZM38.4359 11.5392C39.9951 11.5392 40.8594 12.3527 40.8594 13.9966V34.0115C40.8594 35.6554 39.9951 36.4689 38.4359 36.4689H20.8106V11.5392H38.4359ZM14.2858 17.742C14.896 17.742 15.4044 17.2166 15.4044 16.6404C15.4044 16.0642 14.896 15.5557 14.2858 15.5557H10.8116C10.2015 15.5557 9.6931 16.0642 9.6931 16.6404C9.6931 17.2166 10.2015 17.742 10.8116 17.742H14.2858ZM14.2858 22.3008C14.896 22.3008 15.4044 21.7924 15.4044 21.1992C15.4044 20.623 14.896 20.1146 14.2858 20.1146H10.8116C10.2015 20.1146 9.6931 20.623 9.6931 21.1992C9.6931 21.7924 10.2015 22.3008 10.8116 22.3008H14.2858ZM14.2858 26.8427C14.896 26.8427 15.4044 26.3512 15.4044 25.7581C15.4044 25.1819 14.896 24.6904 14.2858 24.6904H10.8116C10.2015 24.6904 9.6931 25.1819 9.6931 25.7581C9.6931 26.3512 10.2015 26.8427 10.8116 26.8427H14.2858Z" fill="#363636"/>
</svg>
