<svg width="31" height="31" viewBox="0 0 31 31" fill="none" xmlns="http://www.w3.org/2000/svg">
<rect width="30.625" height="30.625" fill="#FFCA28"/>
<path d="M18.5938 25.4709L20.8486 23.9789C21.0252 24.534 22.1442 25.8525 23.5577 25.8525C24.9712 25.8525 25.6274 25.0805 25.6274 24.5687C25.6274 23.174 24.1841 22.6822 23.4909 22.446C23.3779 22.4075 23.2848 22.3758 23.2212 22.3481C23.1885 22.3339 23.1392 22.315 23.0758 22.2908C22.3048 21.9963 19.4603 20.9095 19.4603 17.7594C19.4603 14.2896 22.8089 13.8906 23.5661 13.8906C24.0615 13.8906 26.4435 13.9513 27.6298 16.1807L25.4423 17.7073C24.9627 16.7358 24.166 16.4149 23.6755 16.4149C22.4639 16.4149 22.2115 17.3031 22.2115 17.7073C22.2115 18.8418 23.5278 19.3503 24.6393 19.7796C24.9301 19.8919 25.2068 19.9988 25.4423 20.1101C26.6538 20.6826 28.4375 21.6195 28.4375 24.5687C28.4375 26.0459 27.1985 28.4375 24.0793 28.4375C19.8894 28.4375 18.7788 25.9219 18.5938 25.4709Z" fill="#3E3E3E"/>
<path d="M7.65625 25.7672L10.0064 24.2759C10.1905 24.8308 10.9061 25.8539 11.9443 25.8539C12.9826 25.8539 13.514 24.7875 13.514 24.2759V14.2188H16.4043V24.2759C16.451 25.6631 15.6817 28.4375 12.2863 28.4375C9.16453 28.4375 7.86671 26.5821 7.65625 25.7672Z" fill="#3E3E3E"/>
</svg>
