<svg width="1266" height="908" viewBox="0 0 1266 908" fill="none" xmlns="http://www.w3.org/2000/svg">
<path d="M1126.03 820C1126.03 675.672 1072.93 537.256 978.411 435.202C883.894 333.147 755.702 272.471 622.036 272.471C488.369 272.471 360.177 333.147 265.66 435.201C171.144 537.256 118.045 675.672 118.045 819.999L1126.03 820Z" fill="#D9D9D9"/>
<path d="M1022 285.5C837.646 251.588 666.005 293.124 603.229 318.13L1225.47 512.998C1234.46 451.295 1206.35 319.411 1022 285.5Z" fill="#D9D9D9"/>
<path d="M374.446 337.051C511.48 435.208 672.172 438.624 735.388 428.062L309.275 0C273.901 71.4517 237.411 238.894 374.446 337.051Z" fill="#D9D9D9"/>
<path d="M175.811 820C175.811 796.685 166.549 774.326 150.064 757.841C133.578 741.355 111.219 732.094 87.9054 732.094C64.5914 732.094 42.2323 741.355 25.7469 757.841C9.26144 774.326 3.52031e-06 796.685 0 819.999L87.9054 820H175.811Z" fill="#EBEBEB"/>
<path d="M1265.81 820C1265.81 796.685 1256.55 774.326 1240.06 757.841C1223.58 741.355 1201.22 732.094 1177.91 732.094C1154.59 732.094 1132.23 741.355 1115.75 757.841C1099.26 774.326 1090 796.685 1090 819.999L1177.91 820H1265.81Z" fill="#EBEBEB"/>
<path d="M648.627 761.67C641.699 773.67 624.378 773.67 617.45 761.67L606.671 743C599.743 731 608.403 716 622.259 716L643.818 716C657.674 716 666.335 731 659.406 743L648.627 761.67Z" fill="#363636"/>
<line y1="-1.5" x2="116.37" y2="-1.5" transform="matrix(-0.965925 -0.258821 -0.258817 0.965926 221.02 694.399)" stroke="#363636" stroke-width="3"/>
<line y1="-1.5" x2="116.37" y2="-1.5" transform="matrix(0.965925 -0.258821 0.258817 0.965926 1023.05 694.399)" stroke="#363636" stroke-width="3"/>
<line y1="-1.5" x2="116.37" y2="-1.5" transform="matrix(-0.965925 0.258821 0.258817 0.965926 221.02 735.442)" stroke="#363636" stroke-width="3"/>
<line x1="57.5" y1="820" x2="57.5" y2="785" stroke="#D9D9D9" stroke-width="3"/>
<line x1="1147.5" y1="820" x2="1147.5" y2="785" stroke="#D9D9D9" stroke-width="3"/>
<line x1="116.5" y1="820" x2="116.5" y2="785" stroke="#D9D9D9" stroke-width="3"/>
<line x1="1206.5" y1="820" x2="1206.5" y2="785" stroke="#D9D9D9" stroke-width="3"/>
<line y1="-1.5" x2="116.37" y2="-1.5" transform="matrix(0.965925 0.258821 -0.258817 0.965926 1023.05 735.442)" stroke="#363636" stroke-width="3"/>
</svg>
