<svg width="30" height="32" viewBox="0 0 30 32" fill="none" xmlns="http://www.w3.org/2000/svg">
<path d="M19.2295 0.0713094C21.3593 -0.111224 21.9075 0.0107579 23.2461 0.982442L28.7822 4.87111C29.6955 5.5396 30 5.72152 30 6.45022V27.7764C29.9999 29.1126 29.5128 29.9025 27.8096 30.0235L7.66797 31.2393C6.38951 31.3002 5.78093 31.1176 5.11133 30.2666L1.03418 24.9815C0.303645 24.0086 1.51168e-05 23.2803 0 22.4287V3.47268C0.000121489 2.37994 0.487528 1.46874 1.88574 1.34768L19.2295 0.0713094ZM26.957 7.11916L7.18066 8.27248C6.45094 8.33375 6.20709 8.69883 6.20703 9.4883V27.5928C6.20703 28.5658 6.69388 28.9303 7.78906 28.8701L26.7139 27.7754C27.8094 27.7151 27.9316 27.0462 27.9316 26.2559V8.27248C27.9316 7.48361 27.6276 7.05847 26.957 7.11916ZM24.8896 10.459C25.011 11.0064 24.8895 11.5538 24.3408 11.6153L23.4297 11.7969V25.1631C22.6382 25.5882 21.908 25.831 21.2998 25.8311C20.3258 25.8311 20.0811 25.5271 19.3516 24.6162L13.3877 15.2598V24.3125L15.2744 24.7383C15.2742 24.7644 15.256 25.8311 13.752 25.8311L9.55469 26.0742C9.43274 25.8309 9.55469 25.2242 9.98047 25.1026L11.0752 24.7988V12.8301L9.55469 12.708C9.43275 12.1607 9.73648 11.3719 10.5889 11.3106L15.0918 11.0069L21.2998 20.4854V12.1006L19.7168 11.919C19.5953 11.2498 20.0819 10.7644 20.6904 10.7041L24.8896 10.459ZM22.6357 2.56252C22.0878 2.13748 21.358 1.65078 19.959 1.77248L3.28516 2.98733C2.67708 3.04758 2.55565 3.3512 2.79785 3.59475L5.17188 5.47854C6.14454 6.26812 6.50974 6.2077 8.33594 6.08596L25.5557 5.05275C25.9209 5.05275 25.6179 4.68852 25.4961 4.62795L22.6357 2.56252Z" fill="black"/>
</svg>
