<svg width="35" height="34" viewBox="0 0 35 34" fill="none" xmlns="http://www.w3.org/2000/svg">
<path d="M6.19792 2.74045e-06H28.8021C29.6162 -0.00076178 30.4225 0.158443 31.1748 0.468506C31.9271 0.778569 32.6107 1.2334 33.1864 1.80698C33.7621 2.38055 34.2186 3.0616 34.5298 3.81116C34.841 4.56072 35.0008 5.36406 35 6.17522V27.8248C35.0008 28.6359 34.841 29.4393 34.5298 30.1888C34.2186 30.9384 33.7621 31.6195 33.1864 32.193C32.6107 32.7666 31.9271 33.2214 31.1748 33.5315C30.4225 33.8416 29.6162 34.0008 28.8021 34H6.19792C5.38378 34.0008 4.57748 33.8416 3.82517 33.5315C3.07286 33.2214 2.3893 32.7666 1.81362 32.193C1.23794 31.6195 0.781431 30.9384 0.470228 30.1888C0.159026 29.4393 -0.000764581 28.6359 2.75053e-06 27.8248V6.17522C-0.000764581 5.36406 0.159026 4.56072 0.470228 3.81116C0.781431 3.0616 1.23794 2.38055 1.81362 1.80698C2.3893 1.2334 3.07286 0.778569 3.82517 0.468506C4.57748 0.158443 5.38378 -0.00076178 6.19792 2.74045e-06Z" fill="#001E36"/>
<path d="M7.875 23.8436V8.89227C7.875 8.79056 7.91875 8.73244 8.02083 8.73244C8.26875 8.73244 8.50208 8.73244 8.8375 8.71791C9.17292 8.70338 9.55208 8.70338 9.94583 8.68885C10.3396 8.67432 10.7625 8.67432 11.2146 8.65979C11.6667 8.64526 12.1042 8.64526 12.5417 8.64526C13.7375 8.64526 14.7292 8.79056 15.5458 9.09569C16.2779 9.34339 16.9455 9.75039 17.5 10.2871C17.9699 10.7569 18.333 11.3218 18.5646 11.9436C18.7853 12.5491 18.8988 13.1882 18.9 13.8324C18.9 15.082 18.6083 16.1136 18.025 16.9273C17.439 17.7399 16.6207 18.3576 15.6771 18.7C14.6854 19.0632 13.5917 19.194 12.3958 19.194C12.0458 19.194 11.8125 19.194 11.6667 19.1795C11.5208 19.1649 11.3167 19.1649 11.0396 19.1649V23.829C11.0428 23.8529 11.0412 23.8772 11.0349 23.9005C11.0285 23.9238 11.0175 23.9456 11.0026 23.9646C10.9876 23.9835 10.969 23.9993 10.9478 24.011C10.9266 24.0226 10.9033 24.0299 10.8792 24.0324H8.05C7.93333 24.0324 7.875 23.9743 7.875 23.8436ZM11.0542 11.5367V16.4188C11.2583 16.4333 11.4479 16.4478 11.6229 16.4478H12.3958C12.9651 16.4485 13.531 16.3603 14.0729 16.1863C14.5378 16.0501 14.9532 15.7826 15.2688 15.4162C15.575 15.053 15.7208 14.5589 15.7208 13.9196C15.7346 13.4656 15.6182 13.017 15.3854 12.6265C15.1423 12.2492 14.7846 11.9591 14.3646 11.7983C13.8171 11.5846 13.2313 11.4857 12.6437 11.5077C12.2646 11.5077 11.9292 11.5077 11.6521 11.5222C11.4527 11.5092 11.2526 11.5141 11.0542 11.5367Z" fill="#31A8FF"/>
<path d="M28 15.5325C27.5597 15.3015 27.0881 15.1351 26.6 15.0385C26.0639 14.9176 25.5163 14.8542 24.9667 14.8496C24.6715 14.8395 24.3765 14.8738 24.0917 14.9513C23.91 14.989 23.7489 15.0926 23.6396 15.2419C23.5659 15.3598 23.5256 15.4954 23.5229 15.6342C23.5297 15.7725 23.5808 15.9049 23.6688 16.012C23.807 16.1736 23.9754 16.3068 24.1646 16.4043C24.5 16.5787 24.85 16.7385 25.2 16.8838C25.9879 17.1481 26.7417 17.5041 27.4458 17.9445C27.9248 18.2445 28.3208 18.6591 28.5979 19.1505C28.8323 19.614 28.9475 20.1282 28.9333 20.6471C28.9452 21.3338 28.7468 22.0079 28.3646 22.5795C27.9578 23.1596 27.3902 23.6089 26.7313 23.8727C26.0167 24.1778 25.1417 24.3377 24.0917 24.3377C23.4259 24.3403 22.7615 24.2771 22.1083 24.1488C21.594 24.0602 21.0938 23.9039 20.6208 23.6838C20.57 23.6584 20.5277 23.6187 20.4992 23.5697C20.4707 23.5206 20.4572 23.4643 20.4604 23.4078V20.8795C20.4592 20.8547 20.4638 20.8299 20.4739 20.8072C20.4841 20.7845 20.4994 20.7645 20.5188 20.7488C20.5393 20.7369 20.5632 20.7318 20.5868 20.7344C20.6104 20.7371 20.6326 20.7472 20.65 20.7633C21.2118 21.0933 21.8219 21.3335 22.4583 21.4753C23.0202 21.6209 23.5986 21.6942 24.1792 21.6932C24.7333 21.6932 25.1271 21.6206 25.3896 21.4898C25.5067 21.4359 25.6059 21.3499 25.6756 21.2418C25.7454 21.1337 25.7827 21.008 25.7833 20.8795C25.7833 20.6761 25.6667 20.4872 25.4333 20.2984C25.2 20.1095 24.7188 19.8915 24.0042 19.6154C23.2711 19.3581 22.5749 19.0064 21.9333 18.5693C21.4764 18.2448 21.0977 17.8229 20.825 17.3342C20.5923 16.8753 20.477 16.3662 20.4896 15.8522C20.4917 15.2322 20.6631 14.6245 20.9854 14.0941C21.3559 13.5108 21.8876 13.0466 22.5167 12.7573C23.2021 12.4086 24.0625 12.2488 25.0979 12.2488C25.7031 12.249 26.3074 12.2927 26.9063 12.3795C27.3368 12.4376 27.7583 12.5499 28.1604 12.7137C28.2245 12.7364 28.2769 12.7834 28.3063 12.8445C28.3231 12.9012 28.3329 12.9598 28.3354 13.0189V15.3872C28.3357 15.4155 28.3292 15.4434 28.3165 15.4686C28.3038 15.4939 28.2853 15.5158 28.2625 15.5325C28.1777 15.5629 28.0848 15.5629 28 15.5325Z" fill="#31A8FF"/>
</svg>
