<svg width="50" height="50" viewBox="0 0 50 50" fill="none" xmlns="http://www.w3.org/2000/svg">
<path d="M32.2711 16.6208L26.1769 4.29395L17.3126 16.6208L2.9082 21.1915L12.742 30.8867L10.3874 44.4602L24.7919 39.6125L36.9802 45.9837L36.5647 30.8867L47.3957 20.5405L32.2711 16.6208ZM28.8085 27.7011C28.5869 28.089 29.0855 32.6873 29.0855 32.6873L25.6229 30.8867L21.0522 32.6873C21.0522 32.6873 21.6201 28.0059 21.1908 27.7011L18.4207 24.9311L22.2988 24.3771C22.7974 24.5017 25.0689 20.0834 25.0689 20.0834C25.0689 20.0834 27.4096 24.3632 27.839 24.3771L31.7171 24.9311L28.8085 27.7011Z" stroke="#081219" stroke-miterlimit="10"/>
</svg>
